SplineFontDB: 3.0
FontName: Vinron-Regular
FullName: Vinron
FamilyName: Vinron
Weight: Regular
Copyright: Copyright (c) 2018, Jeong-il Seok
UComments: "2018-2-18: Created with FontForge (http://fontforge.org)"
Version: 1.001
ItalicAngle: 0
UnderlinePosition: -200
UnderlineWidth: 100
Ascent: 800
Descent: 200
InvalidEm: 0
LayerCount: 2
Layer: 0 0 "+tLe6dAAA" 1
Layer: 1 0 "+xV66dAAA" 0
PreferredKerning: 4
XUID: [1021 752 363211294 2835]
StyleMap: 0x0000
FSType: 0
OS2Version: 0
OS2_WeightWidthSlopeOnly: 0
OS2_UseTypoMetrics: 1
CreationTime: 1518945957
ModificationTime: 1526087017
PfmFamily: 33
TTFWeight: 400
TTFWidth: 5
LineGap: 90
VLineGap: 0
OS2TypoAscent: 0
OS2TypoAOffset: 1
OS2TypoDescent: 0
OS2TypoDOffset: 1
OS2TypoLinegap: 90
OS2WinAscent: 0
OS2WinAOffset: 1
OS2WinDescent: 0
OS2WinDOffset: 1
HheadAscent: 0
HheadAOffset: 1
HheadDescent: 0
HheadDOffset: 1
OS2Vendor: 'PfEd'
Lookup: 4 0 0 "+x4THWMCsxqkA +1WnHTMeQ" { "+x4THWMCsxqkA +1WnHTMeQ"  } ['dlig' ('DFLT' <'dflt' > 'latn' <'dflt' > ) ]
Lookup: 4 0 1 "Base ligature" { "about f"  } ['liga' ('DFLT' <'dflt' > 'grek' <'dflt' > 'latn' <'dflt' > ) ]
Lookup: 258 0 0 "Kerning" { "Latin Capital" [150,15,0] "Latin Small" [150,15,0] "Special" [153,15,0] } ['kern' ('DFLT' <'dflt' > 'cans' <'dflt' > 'latn' <'dflt' > ) ]
MarkAttachClasses: 1
DEI: 91125
KernClass2: 7 20 "Special"
 5 space
 20 quotedbl quotesingle
 6 exclam
 8 question
 10 asciitilde
 12 comma period
 41 f t longs f_f f_i f_l f_f_i f_f_l longs_t
 354 B D E F H I K L M N P R b h i k l p Egrave Eacute Ecircumflex Edieresis Igrave Iacute Icircumflex Idieresis Ntilde Dcaron Emacron Ebreve Edotaccent Ecaron Hcircumflex hcircumflex Imacron Ibreve Idotaccent IJ ij Kcommaaccent kcommaaccent Lacute lacute Lcommaaccent lcommaaccent Lcaron lcaron Ldot ldot Nacute Ncommaaccent Ncaron Racute Rcommaaccent Rcaron

StartChar: exclam
Encoding: 33 33 0
Width: 260
Flags: W
HStem: 0 90<90 170> 700 20G<80 180>
VStem: 80 100<384.667 720> 90 80<0 90>
LayerCount: 2
Fore
SplineSet
90 0 m 1xd0
 90 90 l 1
 170 90 l 1
 170 0 l 1
 90 0 l 1xd0
80 450 m 1xe0
 80 720 l 1
 180 720 l 1
 180 450 l 1
 150 170 l 1
 110 170 l 1
 80 450 l 1xe0
EndSplineSet
Validated: 1
EndChar

StartChar: quotesingle
Encoding: 39 39 1
Width: 240
Flags: W
HStem: 500 220<80 160>
VStem: 80 80<500 720>
LayerCount: 2
Fore
SplineSet
80 500 m 1
 80 720 l 1
 160 720 l 1
 160 500 l 1
 80 500 l 1
EndSplineSet
Validated: 1
EndChar

StartChar: A
Encoding: 65 65 3
Width: 660
VWidth: 0
Flags: W
HStem: 0 21G<20 111.032 548.968 640> 219 72<206 454> 642 78<276 384>
DStem2: 20 0 104 0 0.33501 0.942215<28.1408 260.282 336.496 708.755> 384 720 330 642 0.33501 -0.942215<55.4022 427.661 503.875 736.016>
LayerCount: 2
Fore
SplineSet
104 0 m 1
 20 0 l 1
 276 720 l 1
 384 720 l 1
 640 0 l 1
 556 0 l 1
 479 219 l 1
 181 219 l 1
 104 0 l 1
454 291 m 1
 330 642 l 1
 206 291 l 1
 454 291 l 1
EndSplineSet
Validated: 1
EndChar

StartChar: D
Encoding: 68 68 4
Width: 720
VWidth: 0
Flags: W
HStem: 0 72<164 455.316> 648 72<164 455.316>
VStem: 80 84<72 648> 596 84<227.992 492.008>
LayerCount: 2
Fore
SplineSet
164 72 m 1
 356 72 l 2
 516 72 596 200 596 360 c 0
 596 520 516 648 356 648 c 2
 164 648 l 5
 164 72 l 1
80 0 m 1
 80 720 l 1
 360 720 l 2
 560 720 680 560 680 360 c 0
 680 160 560 0 360 0 c 2
 80 0 l 1
EndSplineSet
Validated: 1
EndChar

StartChar: E
Encoding: 69 69 5
Width: 620
VWidth: 0
Flags: W
HStem: 0 72<164 600> 324 72<164 570> 648 72<164 600>
VStem: 80 84<72 324 396 648>
CounterMasks: 1 e0
LayerCount: 2
Fore
SplineSet
80 0 m 1
 80 720 l 1
 600 720 l 1
 600 648 l 1
 164 648 l 1
 164 396 l 1
 570 396 l 1
 570 324 l 5
 164 324 l 1
 164 72 l 1
 600 72 l 1
 600 0 l 1
 80 0 l 1
EndSplineSet
Validated: 1
EndChar

StartChar: F
Encoding: 70 70 6
Width: 620
VWidth: 0
Flags: W
HStem: 0 21G<80 164> 324 72<164 570> 648 72<164 600>
VStem: 80 84<0 324 396 648>
LayerCount: 2
Fore
SplineSet
80 0 m 1
 80 720 l 1
 600 720 l 1
 600 648 l 1
 164 648 l 1
 164 396 l 1
 570 396 l 1
 570 324 l 1
 164 324 l 1
 164 0 l 1
 80 0 l 1
EndSplineSet
Validated: 1
EndChar

StartChar: H
Encoding: 72 72 7
Width: 720
VWidth: 0
Flags: W
HStem: 0 21G<80 164 556 640> 324 72<164 556> 700 20G<80 164 556 640>
VStem: 80 84<0 324 396 720> 556 84<0 324 396 720>
LayerCount: 2
Fore
SplineSet
80 0 m 1
 80 720 l 1
 164 720 l 1
 164 396 l 1
 556 396 l 1
 556 720 l 1
 640 720 l 1
 640 0 l 1
 556 0 l 1
 556 324 l 1
 164 324 l 1
 164 0 l 1
 80 0 l 1
EndSplineSet
Validated: 1
EndChar

StartChar: I
Encoding: 73 73 8
Width: 240
VWidth: 0
Flags: W
HStem: 0 21G<78 162> 700 20G<78 162>
VStem: 78 84<0 720>
LayerCount: 2
Fore
SplineSet
78 0 m 1
 78 720 l 1
 162 720 l 1
 162 0 l 1
 78 0 l 1
EndSplineSet
Validated: 1
EndChar

StartChar: L
Encoding: 76 76 9
Width: 620
VWidth: 0
Flags: W
HStem: 0 72<164 600> 700 20G<80 164>
VStem: 80 84<72 720>
LayerCount: 2
Fore
SplineSet
80 0 m 1
 80 720 l 1
 164 720 l 1
 164 72 l 1
 600 72 l 1
 600 0 l 1
 80 0 l 1
EndSplineSet
Validated: 1
EndChar

StartChar: l
Encoding: 108 108 10
Width: 240
VWidth: 0
Flags: W
HStem: 0 21G<80 160> 700 20G<80 160>
VStem: 80 80<0 720>
LayerCount: 2
Fore
SplineSet
80 0 m 1
 80 720 l 1
 160 720 l 1
 160 0 l 1
 80 0 l 1
EndSplineSet
Validated: 1
EndChar

StartChar: n
Encoding: 110 110 12
Width: 570
VWidth: 0
Flags: W
HStem: 0 21G<80 160 420 500> 470 70<229.514 362.691> 500 20G<80 160>
VStem: 80 80<0 414.473 456 520> 420 80<0 413.745>
LayerCount: 2
Fore
SplineSet
80 0 m 1xd8
 80 520 l 5
 160 520 l 1xb8
 160 456 l 1
 190 508 250 540 330 540 c 0
 430 540 500 460 500 360 c 2
 500 0 l 1
 420 0 l 1
 420 340 l 2
 420 410 370 470 290 470 c 0
 210 470 160 410 160 340 c 2
 160 0 l 1
 80 0 l 1xd8
EndSplineSet
Validated: 1
EndChar

StartChar: h
Encoding: 104 104 13
Width: 570
VWidth: 0
Flags: W
HStem: 0 21G<80 160 420 500> 470 70<229.514 362.691> 700 20G<80 160>
VStem: 80 80<0 414.473 456 720> 420 80<0 413.745>
LayerCount: 2
Fore
SplineSet
80 0 m 1
 80 720 l 1
 160 720 l 1
 160 456 l 1
 190 508 250 540 330 540 c 0
 430 540 500 460 500 360 c 2
 500 0 l 1
 420 0 l 1
 420 340 l 2
 420 410 370 470 290 470 c 0
 210 470 160 410 160 340 c 2
 160 0 l 1
 80 0 l 1
EndSplineSet
Validated: 1
EndChar

StartChar: r
Encoding: 114 114 14
Width: 350
VWidth: 0
Flags: W
HStem: 0 21G<80 160> 460 80<217.537 330> 500 20G<80 160>
VStem: 80 80<0 415.662 446 520>
LayerCount: 2
Fore
SplineSet
80 0 m 1xd0
 80 520 l 1
 160 520 l 1xb0
 160 446 l 1
 181 502 230 540 290 540 c 0
 310 540 321 538 330 535 c 1
 330 455 l 5
 310 458 290 460 270 460 c 4
 200 460 160 410 160 340 c 2
 160 0 l 1
 80 0 l 1xd0
EndSplineSet
Validated: 1
EndChar

StartChar: m
Encoding: 109 109 15
Width: 910
VWidth: 0
Flags: W
HStem: 0 21G<80 160 420 500 760 840> 470 70<229.514 363.317 563.821 702.691> 500 20G<80 160>
VStem: 80 80<0 414.473 455 520> 420 80<0 414.473> 760 80<0 413.745>
CounterMasks: 1 1c
LayerCount: 2
Fore
SplineSet
80 0 m 1xdc
 80 520 l 1
 160 520 l 1xbc
 160 455 l 1
 190 507 250 540 330 540 c 0
 395 540 455 499 483 435 c 1
 523 504 572 540 670 540 c 0
 770 540 840 460 840 360 c 2
 840 0 l 1
 760 0 l 1
 760 340 l 2
 760 410 710 470 630 470 c 0
 550 470 500 410 500 340 c 2
 500 0 l 1
 420 0 l 1
 420 340 l 2
 420 410 370 470 290 470 c 0
 210 470 160 410 160 340 c 2
 160 0 l 1
 80 0 l 1xdc
EndSplineSet
Validated: 1
EndChar

StartChar: K
Encoding: 75 75 16
Width: 600
VWidth: 0
Flags: W
HStem: 0 21G<80 164 452.052 580> 700 20G<80 164 447.184 580>
VStem: 80 84<0 280 399 720> 466 114<0 114 606 720>
DStem2: 164 399 224 347 0.685223 0.728333<0 3.24006 96.6641 440.732> 287 416 224 347 0.575834 -0.817567<20.1345 443.182>
LayerCount: 2
Fore
SplineSet
164 280 m 1
 164 0 l 1
 80 0 l 1
 80 720 l 1
 164 720 l 1
 164 399 l 1
 466 720 l 1
 580 720 l 1
 287 416 l 1
 580 0 l 1
 466 0 l 1
 224 347 l 1
 164 280 l 1
EndSplineSet
Validated: 1
EndChar

StartChar: C
Encoding: 67 67 17
Width: 720
VWidth: 0
Flags: W
HStem: -20 72<273.015 478.442> 668 72<273.015 478.442>
VStem: 40 84<225.58 494.42> 596 84<156 240 480 564>
LayerCount: 2
Fore
SplineSet
40 360 m 0
 40 600 185 740 375 740 c 0
 545 740 652 638 680 480 c 1
 596 480 l 1
 575 598 495 668 375 668 c 0
 225 668 124 550 124 360 c 0
 124 170 225 52 375 52 c 4
 495 52 575 122 596 240 c 1
 680 240 l 1
 652 82 545 -20 375 -20 c 0
 185 -20 40 120 40 360 c 0
EndSplineSet
Validated: 1
EndChar

StartChar: k
Encoding: 107 107 19
Width: 520
VWidth: 0
Flags: W
HStem: 0 21G<80 160 394.337 500> 500 20G<355.889 480> 700 20G<80 160>
VStem: 80 80<0 192 295 720> 375 105<415 520> 410 90<0 90>
DStem2: 160 295 215 249 0.698324 0.715782<0 5.48184 76.9029 311.191> 265 300 215 249 0.616662 -0.787228<9.31553 325.584>
LayerCount: 2
Fore
SplineSet
80 0 m 1xf4
 80 720 l 1
 160 720 l 1
 160 295 l 1
 375 520 l 1
 480 520 l 1xf8
 265 300 l 1
 500 0 l 1
 410 0 l 1
 215 249 l 1
 160 192 l 1
 160 0 l 1
 80 0 l 1xf4
EndSplineSet
Validated: 1
EndChar

StartChar: numbersign
Encoding: 35 35 20
Width: 760
VWidth: 0
Flags: W
HStem: 0 21G<130 213.529 423 506.529> 170 80<20 160 254 453 547 690> 470 80<70 213 307 506 600 740> 700 20G<253.471 337 546.471 630>
VStem: 130 80<0 80> 257 80<640 720> 423 80<0 80> 550 80<640 720>
DStem2: 130 0 210 0 0.173707 0.984797<13.8966 172.627 267.739 477.272 572.385 731.115> 423 0 503 0 0.173707 0.984797<13.8966 172.627 267.739 477.272 572.385 731.115>
LayerCount: 2
Fore
SplineSet
254 250 m 1
 467 250 l 1
 506 470 l 1
 293 470 l 1
 254 250 l 1
20 170 m 1
 20 250 l 1
 174 250 l 1
 213 470 l 1
 70 470 l 1
 70 550 l 1
 227 550 l 1
 257 720 l 1
 337 720 l 1
 307 550 l 1
 520 550 l 1
 550 720 l 1
 630 720 l 1
 600 550 l 1
 740 550 l 1
 740 470 l 1
 586 470 l 1
 547 250 l 1
 690 250 l 1
 690 170 l 1
 533 170 l 1
 503 0 l 1
 423 0 l 1
 453 170 l 1
 240 170 l 1
 210 0 l 1
 130 0 l 1
 160 170 l 1
 20 170 l 1
EndSplineSet
Validated: 1
EndChar

StartChar: O
Encoding: 79 79 21
Width: 760
VWidth: 0
Flags: W
HStem: -20 72<277.394 482.606> 668 72<277.394 482.606>
VStem: 40 84<221.496 498.504> 636 84<221.496 498.504>
LayerCount: 2
Fore
SplineSet
124 360 m 0
 124 160 230 52 380 52 c 0
 530 52 636 160 636 360 c 0
 636 560 530 668 380 668 c 0
 230 668 124 560 124 360 c 0
40 360 m 0
 40 610 190 740 380 740 c 0
 570 740 720 610 720 360 c 0
 720 110 570 -20 380 -20 c 0
 190 -20 40 110 40 360 c 0
EndSplineSet
Validated: 1
EndChar

StartChar: T
Encoding: 84 84 22
Width: 600
VWidth: 0
Flags: W
HStem: 0 21G<258 342> 648 72<20 258 342 580>
VStem: 258 84<0 648>
LayerCount: 2
Fore
SplineSet
20 648 m 1
 20 720 l 1
 580 720 l 1
 580 648 l 1
 342 648 l 1
 342 0 l 1
 258 0 l 1
 258 648 l 1
 20 648 l 1
EndSplineSet
Validated: 1
EndChar

StartChar: Q
Encoding: 81 81 24
Width: 760
VWidth: 0
Flags: W
HStem: -20 72<277.394 486.218> 668 72<277.394 482.606>
VStem: 40 84<221.496 498.504> 636 84<220.92 498.504>
DStem2: 475 225 415 165 0.722308 -0.691571<0 119.089 207.581 323.502>
LayerCount: 2
Fore
SplineSet
415 165 m 1
 475 225 l 1
 568 136 l 1
 611 188 636 263 636 360 c 0
 636 560 530 668 380 668 c 0
 230 668 124 560 124 360 c 0
 124 160 230 52 380 52 c 0
 425 52 466 62 502 81 c 1
 415 165 l 1
40 360 m 0
 40 610 190 740 380 740 c 0
 570 740 720 610 720 360 c 0
 720 238 685 145 626 81 c 1
 710 0 l 1
 650 -60 l 1
 559 27 l 1
 507 -4 446 -20 380 -20 c 0
 190 -20 40 110 40 360 c 0
EndSplineSet
Validated: 1
EndChar

StartChar: u
Encoding: 117 117 25
Width: 570
VWidth: 0
Flags: W
HStem: -20 70<207.229 351.334> 0 21G<410 490> 500 20G<70 150 410 490>
VStem: 70 80<106.978 520> 410 80<0 64 105.527 520>
LayerCount: 2
Fore
SplineSet
70 160 m 2xb8
 70 520 l 1
 150 520 l 1
 150 180 l 2
 150 110 200 50 280 50 c 0xb8
 360 50 410 110 410 180 c 2
 410 520 l 1
 490 520 l 1
 490 0 l 1
 410 0 l 1x78
 410 64 l 1
 375 3 330 -20 250 -20 c 0
 160 -20 70 50 70 160 c 2xb8
EndSplineSet
Validated: 1
EndChar

StartChar: V
Encoding: 86 86 26
Width: 660
VWidth: 0
Flags: W
HStem: 0 78<276 384> 700 20G<20 111.04 548.96 640>
DStem2: 104 720 20 720 0.33501 -0.942215<0 680.614> 330 78 384 0 0.33501 0.942215<0 680.614>
LayerCount: 2
Fore
SplineSet
104 720 m 1
 330 78 l 1
 556 720 l 1
 640 720 l 1
 384 0 l 1
 276 0 l 1
 20 720 l 1
 104 720 l 1
EndSplineSet
Validated: 1
EndChar

StartChar: W
Encoding: 87 87 27
Width: 950
VWidth: 0
Flags: W
HStem: 0 80<201 319 631 749> 630 90<416 534>
VStem: 20 84<636 720> 846 84<636 720>
DStem2: 104 720 20 720 0.243803 -0.969825<0 658.721> 260 80 319 0 0.236816 0.971554<0 585.27> 534 720 475 630 0.236816 -0.971554<73.4677 658.738> 690 80 749 0 0.243803 0.969825<0 658.721>
LayerCount: 2
Fore
SplineSet
20 720 m 1
 104 720 l 1
 260 80 l 1
 416 720 l 1
 534 720 l 1
 690 80 l 1
 846 720 l 1
 930 720 l 1
 749 0 l 1
 631 0 l 1
 475 630 l 1
 319 0 l 1
 201 0 l 1
 20 720 l 1
EndSplineSet
Validated: 1
EndChar

StartChar: M
Encoding: 77 77 28
Width: 860
VWidth: 0
Flags: W
HStem: 0 78<376 484> 700 20G<80 211.04 648.96 780>
VStem: 80 84<0 596.25> 696 84<0 596.25>
DStem2: 204 720 164 596.25 0.332051 -0.943261<103.447 680.617> 430 78 484 0 0.332051 0.943261<0 577.171>
LayerCount: 2
Fore
SplineSet
164 0 m 1
 80 0 l 1
 80 720 l 5
 204 720 l 1
 430 78 l 1
 656 720 l 1
 780 720 l 1
 780 0 l 1
 696 0 l 1
 696 596.25 l 1
 484 0 l 1
 376 0 l 1
 164 596.25 l 1
 164 0 l 1
EndSplineSet
Validated: 1
EndChar

StartChar: f
Encoding: 102 102 29
Width: 290
VWidth: 0
Flags: W
HStem: 0 21G<90 170> 450 70<20 90 170 260> 670 70<182.444 269.271>
VStem: 90 80<0 450 520 659.778>
LayerCount: 2
Fore
SplineSet
20 450 m 5
 20 520 l 5
 90 520 l 5
 90 570 l 6
 90 710 140 740 200 740 c 4
 230 740 259 734 270 730 c 5
 270 665 l 5
 250 668 240 670 220 670 c 4
 180 670 170 640 170 570 c 6
 170 520 l 5
 260 520 l 5
 260 450 l 5
 170 450 l 5
 170 0 l 5
 90 0 l 5
 90 450 l 5
 20 450 l 5
EndSplineSet
Validated: 1
EndChar

StartChar: o
Encoding: 111 111 30
Width: 580
VWidth: 0
Flags: W
HStem: -20 70<207.666 372.334> 470 70<207.666 372.334>
VStem: 40 80<145.838 374.162> 460 80<145.838 374.162>
LayerCount: 2
Fore
SplineSet
120 260 m 0
 120 120 190 50 290 50 c 0
 390 50 460 120 460 260 c 0
 460 400 390 470 290 470 c 0
 190 470 120 400 120 260 c 0
40 260 m 0
 40 440 150 540 290 540 c 0
 430 540 540 440 540 260 c 0
 540 80 430 -20 290 -20 c 0
 150 -20 40 80 40 260 c 0
EndSplineSet
Validated: 1
EndChar

StartChar: P
Encoding: 80 80 31
Width: 630
VWidth: 0
Flags: W
HStem: 0 21G<80 164> 310 72<164 454.578> 648 72<164 454.578>
VStem: 80 84<0 310 382 648> 506 84<435.088 594.912>
LayerCount: 2
Fore
SplineSet
164 382 m 1
 386 382 l 2
 456 382 506 435 506 515 c 0
 506 595 456 648 386 648 c 2
 164 648 l 1
 164 382 l 1
80 0 m 1
 80 720 l 1
 390 720 l 2
 490 720 590 665 590 515 c 0
 590 365 490 310 390 310 c 2
 164 310 l 1
 164 0 l 1
 80 0 l 1
EndSplineSet
Validated: 1
EndChar

StartChar: R
Encoding: 82 82 32
Width: 630
VWidth: 0
Flags: W
HStem: 0 21G<80 164 520.387 620> 310 72<164 381> 648 72<164 454.578>
VStem: 80 84<0 310 382 648> 506 84<435.905 594.912>
DStem2: 464 321 381 310 0.437098 -0.899414<0 317.56>
LayerCount: 2
Fore
SplineSet
164 382 m 1
 386 382 l 2
 456 382 506 435 506 515 c 0
 506 595 456 648 386 648 c 2
 164 648 l 1
 164 382 l 1
80 0 m 1
 80 720 l 1
 390 720 l 2
 490 720 590 665 590 515 c 0
 590 403 534 344 464 321 c 1
 620 0 l 1
 530 0 l 1
 381 310 l 1
 164 310 l 1
 164 0 l 1
 80 0 l 1
EndSplineSet
Validated: 1
EndChar

StartChar: N
Encoding: 78 78 33
Width: 750
VWidth: 0
Flags: W
HStem: 0 21G<80 164 556.467 670> 700 20G<80 193.533 586 670>
VStem: 80 84<0 600> 586 84<120 720>
DStem2: 180 720 164 600 0.560421 -0.828208<90.4182 724.456>
LayerCount: 2
Fore
SplineSet
80 0 m 1
 80 720 l 1
 180 720 l 1
 586 120 l 1
 586 720 l 1
 670 720 l 1
 670 0 l 1
 570 0 l 1
 164 600 l 1
 164 0 l 1
 80 0 l 1
EndSplineSet
Validated: 1
EndChar

StartChar: zero
Encoding: 48 48 34
Width: 580
VWidth: 0
Flags: W
HStem: -20 72<214.189 365.811> 668 72<214.189 365.811>
VStem: 40 84<178.281 541.719> 456 84<177.567 542.433>
LayerCount: 2
Fore
SplineSet
124 360 m 0
 124 165 170 52 290 52 c 0
 410 52 456 165 456 360 c 4
 456 555 410 668 290 668 c 0
 170 668 124 555 124 360 c 0
40 360 m 0
 40 650 150 740 290 740 c 0
 430 740 540 650 540 360 c 0
 540 70 430 -20 290 -20 c 0
 150 -20 40 70 40 360 c 0
  Spiro
    40 360 o
    73.6393 587.238 o
    163.074 705.998 o
    290 740 o
    416.926 705.998 o
    506.361 587.238 o
    540 360 o
    506.361 132.762 o
    416.926 14.0019 o
    290 -20 o
    163.074 14.0019 o
    73.6393 132.762 o
    0 0 z
  EndSpiro
EndSplineSet
Validated: 1
EndChar

StartChar: B
Encoding: 66 66 35
Width: 630
VWidth: 0
Flags: W
HStem: 0 72<164 456.318> 349 72<164 437.24> 648 72<164 438.701>
VStem: 80 84<72 349 421 648> 476 84<463.657 610.55> 506 84<127.644 294.617>
LayerCount: 2
Fore
SplineSet
164 421 m 1xf8
 386 421 l 2
 446 421 476 490 476 540 c 0
 476 590 446 648 386 648 c 2
 164 648 l 1
 164 421 l 1xf8
164 72 m 1
 406 72 l 2
 456 72 506 130 506 210 c 0xf4
 506 290 456 349 406 349 c 2
 164 349 l 1
 164 72 l 1
80 0 m 1
 80 720 l 1
 390 720 l 2
 490 720 560 640 560 540 c 0xf8
 560 480 541 420 480 385 c 1
 555 358 590 300 590 210 c 0
 590 60 490 0 410 0 c 2
 80 0 l 1
EndSplineSet
Validated: 1
EndChar

StartChar: G
Encoding: 71 71 36
Width: 770
VWidth: 0
Flags: W
HStem: -20 72<277.394 486.752> 0 21G<613.778 690> 309 72<370 606> 668 72<277.394 484.38>
VStem: 40 84<225.58 494.42> 606 84<163.231 309 480 564> 616 74<0 63>
LayerCount: 2
Fore
SplineSet
40 360 m 0xbc
 40 600 190 740 380 740 c 0
 550 740 662 638 690 480 c 1
 606 480 l 1
 585 598 500 668 380 668 c 0
 230 668 124 550 124 360 c 0
 124 170 230 52 380 52 c 0
 510 52 606 130 606 260 c 2
 606 309 l 1xbc
 370 309 l 1
 370 381 l 1
 690 381 l 1
 690 0 l 1
 616 0 l 1x7a
 606 90 l 1
 579 15 480 -20 380 -20 c 0
 190 -20 40 120 40 360 c 0xbc
EndSplineSet
Validated: 1
EndChar

StartChar: d
Encoding: 100 100 37
Width: 620
VWidth: 0
Flags: W
HStem: -20 70<210.105 370.228> 0 21G<460 540> 470 70<210.105 368.522> 700 20G<460 540>
VStem: 40 80<151.413 368.587> 460 80<0 80 149.258 370.742 420 720>
LayerCount: 2
Fore
SplineSet
120 260 m 0xbc
 120 120 200 50 290 50 c 0
 380 50 460 120 460 260 c 0
 460 400 380 470 290 470 c 0
 200 470 120 400 120 260 c 0xbc
  Spiro
    120 260 o
    144.029 143.427 o
    206.001 73.2867 o
    290 50 o
    373.999 73.2867 o
    435.971 143.427 o
    460 260 o
    435.971 376.573 o
    373.999 446.713 o
    290 470 o
    206.001 446.713 o
    144.029 376.573 o
    0 0 z
  EndSpiro
40 260 m 0
 40 440 150 540 270 540 c 0
 370 540 436 486 460 420 c 1
 460 720 l 1
 540 720 l 1
 540 0 l 1
 460 0 l 1x7c
 460 80 l 1
 436 14 370 -20 270 -20 c 0
 150 -20 40 80 40 260 c 0
  Spiro
    40 260 o
    72.9008 412.468 o
    157.139 507.472 o
    270 540 o
    358.294 523.587 o
    422.347 480.391 o
    460 420 v
    460 720 v
    540 720 v
    540 0 v
    460 0 v
    460 80 v
    422.347 24.7852 o
    358.294 -8.76317 o
    270 -20 o
    157.139 12.5282 o
    72.9008 107.532 o
    0 0 z
  EndSpiro
EndSplineSet
Validated: 1
EndChar

StartChar: b
Encoding: 98 98 38
Width: 620
VWidth: 0
Flags: W
HStem: -20 70<251.478 409.895> 0 21G<80 160> 470 70<251.478 409.895> 700 20G<80 160>
VStem: 80 80<0 100 149.258 370.742 420 720> 500 80<151.413 368.587>
LayerCount: 2
Fore
SplineSet
160 260 m 0xbc
 160 120 240 50 330 50 c 0
 420 50 500 120 500 260 c 0
 500 400 420 470 330 470 c 0
 240 470 160 400 160 260 c 0xbc
80 0 m 1x7c
 80 720 l 1
 160 720 l 1
 160 420 l 1
 184 486 250 540 350 540 c 0
 470 540 580 440 580 260 c 0
 580 80 470 -20 350 -20 c 0xbc
 250 -20 184 34 160 100 c 1
 160 0 l 1
 80 0 l 1x7c
EndSplineSet
Validated: 1
EndChar

StartChar: p
Encoding: 112 112 39
Width: 620
VWidth: 0
Flags: W
HStem: -200 21G<80 160> -20 70<251.478 409.895> 470 70<251.478 409.895> 500 20G<80 160>
VStem: 80 80<-200 100 149.258 370.742 420 520> 500 80<151.413 368.587>
LayerCount: 2
Fore
SplineSet
160 260 m 0xec
 160 120 240 50 330 50 c 0
 420 50 500 120 500 260 c 0
 500 400 420 470 330 470 c 0
 240 470 160 400 160 260 c 0xec
80 -200 m 1
 80 520 l 1
 160 520 l 1xdc
 160 420 l 1
 184 486 250 540 350 540 c 0
 470 540 580 440 580 260 c 0
 580 80 470 -20 350 -20 c 0
 250 -20 184 34 160 100 c 1
 160 -200 l 1
 80 -200 l 1
EndSplineSet
Validated: 1
EndChar

StartChar: q
Encoding: 113 113 40
Width: 620
VWidth: 0
Flags: W
HStem: -200 21G<460 540> -20 70<205.237 368.909> 470 70<205.237 368.909> 500 20G<460 540>
VStem: 40 80<145.838 374.162> 460 80<-200 100 144.797 375.203 420 520>
LayerCount: 2
Fore
SplineSet
120 260 m 0xec
 120 120 190 50 290 50 c 0
 390 50 460 120 460 260 c 0
 460 400 390 470 290 470 c 0
 190 470 120 400 120 260 c 0xec
40 260 m 0
 40 440 150 540 270 540 c 0xec
 370 540 436 486 460 420 c 1
 460 520 l 1
 540 520 l 1xdc
 540 -200 l 1
 460 -200 l 1
 460 100 l 1
 436 34 370 -20 270 -20 c 0
 150 -20 40 80 40 260 c 0
EndSplineSet
Validated: 1
EndChar

StartChar: c
Encoding: 99 99 41
Width: 570
VWidth: 0
Flags: W
HStem: -20 70<209.881 378.79> 470 70<209.881 378.79>
VStem: 40 80<150.129 369.871> 450 80<90 170 350 430>
LayerCount: 2
Fore
SplineSet
40 260 m 0
 40 430 150 540 290 540 c 0
 430 540 511 458 530 350 c 1
 450 350 l 1
 440 409 390 470 290 470 c 0
 200 470 120 400 120 260 c 0
 120 120 200 50 290 50 c 0
 390 50 440 111 450 170 c 1
 530 170 l 1
 511 62 430 -20 290 -20 c 0
 150 -20 40 90 40 260 c 0
EndSplineSet
Validated: 1
EndChar

StartChar: g
Encoding: 103 103 42
Width: 620
VWidth: 0
Flags: W
HStem: -220 70<190.898 390.227> -20 70<210.105 368.522> 470 70<210.105 368.522> 500 20G<460 540>
VStem: 40 80<151.413 368.587> 60 80<-150 -70> 460 80<-79.6828 100 149.258 370.742 420 520>
LayerCount: 2
Fore
SplineSet
120 260 m 0xea
 120 120 200 50 290 50 c 0
 380 50 460 120 460 260 c 0
 460 400 380 470 290 470 c 0
 200 470 120 400 120 260 c 0xea
40 260 m 0
 40 440 150 540 270 540 c 0xea
 370 540 436 486 460 420 c 1
 460 520 l 1
 540 520 l 1
 540 10 l 2
 540 -130 450 -220 290 -220 c 0
 170 -220 77 -168 60 -70 c 5
 140 -70 l 1xd6
 149 -119 215 -150 290 -150 c 0
 410 -150 460 -90 460 10 c 2
 460 100 l 1
 436 34 370 -20 270 -20 c 0
 150 -20 40 80 40 260 c 0
EndSplineSet
Validated: 1
EndChar

StartChar: period
Encoding: 46 46 43
Width: 240
Flags: W
HStem: 0 90<80 160>
VStem: 80 80<0 90>
LayerCount: 2
Fore
SplineSet
80 0 m 1
 80 90 l 1
 160 90 l 1
 160 0 l 1
 80 0 l 1
EndSplineSet
Validated: 1
EndChar

StartChar: t
Encoding: 116 116 44
Width: 290
VWidth: 0
Flags: W
HStem: -20 70<181.811 269.092> 450 70<20 90 170 260>
VStem: 90 80<61.11 450 520 670>
LayerCount: 2
Fore
SplineSet
20 450 m 1
 20 520 l 1
 90 520 l 1
 90 670 l 5
 170 670 l 1
 170 520 l 1
 260 520 l 1
 260 450 l 1
 170 450 l 1
 170 150 l 2
 170 80 180 50 220 50 c 0
 240 50 250 52 270 55 c 1
 270 -10 l 1
 251 -17 240 -20 200 -20 c 0
 120 -20 90 30 90 150 c 2
 90 450 l 1
 20 450 l 1
EndSplineSet
Validated: 1
EndChar

StartChar: v
Encoding: 118 118 45
Width: 540
VWidth: 0
Flags: W
HStem: 0 80<220 320> 500 20G<20 107.727 432.273 520>
DStem2: 100 520 20 520 0.358979 -0.933346<0 471.699> 270 80 320 0 0.358979 0.933346<0 471.699>
LayerCount: 2
Fore
SplineSet
20 520 m 1
 100 520 l 1
 270 80 l 1
 440 520 l 1
 520 520 l 1
 320 0 l 1
 220 0 l 1
 20 520 l 1
EndSplineSet
Validated: 1
EndChar

StartChar: e
Encoding: 101 101 46
Width: 580
VWidth: 0
Flags: W
HStem: -20 70<208.315 378.79> 240 70<120 460> 470 70<207.666 377.451>
VStem: 40 80<151.712 240 310 379.157> 450 80<90 170> 460 80<310 372.251>
LayerCount: 2
Fore
SplineSet
120 310 m 1xf4
 460 310 l 1
 460 390 400 470 290 470 c 0
 190 470 120 390 120 310 c 1xf4
40 260 m 0
 40 430 150 540 290 540 c 0
 430 540 540 430 540 240 c 1xf4
 120 240 l 1
 131 131 180 50 290 50 c 0
 390 50 440 111 450 170 c 1
 530 170 l 1xf8
 511 62 430 -20 290 -20 c 0
 150 -20 40 90 40 260 c 0
EndSplineSet
Validated: 1
EndChar

StartChar: U
Encoding: 85 85 47
Width: 680
VWidth: 0
Flags: W
HStem: -20 72<242.049 437.951> 700 20G<80 164 516 600>
VStem: 80 84<136.094 720> 516 84<136.094 720>
LayerCount: 2
Fore
SplineSet
80 250 m 2
 80 720 l 1
 164 720 l 1
 164 250 l 2
 164 130 210 52 340 52 c 0
 470 52 516 130 516 250 c 2
 516 720 l 1
 600 720 l 1
 600 250 l 2
 600 80 520 -20 340 -20 c 0
 160 -20 80 80 80 250 c 2
EndSplineSet
Validated: 1
EndChar

StartChar: w
Encoding: 119 119 48
Width: 755
VWidth: 0
Flags: W
HStem: 0 88<155 270 490 605> 432 88<320 435>
VStem: 20 80<440 520> 655 80<440 520>
DStem2: 100 520 20 520 0.251285 -0.967913<0 445.78> 210 88 270 0 0.246756 0.969078<0 375.311> 435 520 380 432 0.246756 -0.969078<71.7073 445.785> 545 88 605 0 0.242536 0.970143<0 445.78>
LayerCount: 2
Fore
SplineSet
155 0 m 1
 20 520 l 1
 100 520 l 1
 210 88 l 1
 320 520 l 1
 435 520 l 1
 545 88 l 1
 655 520 l 1
 735 520 l 1
 605 0 l 1
 490 0 l 1
 380 432 l 1
 270 0 l 1
 155 0 l 1
EndSplineSet
Validated: 1
EndChar

StartChar: a
Encoding: 97 97 49
Width: 550
VWidth: 0
Flags: W
HStem: -20 70<157.399 333.173> 0 21G<417.143 490> 250 70<176.85 408.594> 470 70<185.677 359.367>
VStem: 40 80<84.9676 202.881> 60 80<370 426.889> 410 80<120.409 243.863 310 421.39> 420 70<0 49>
LayerCount: 2
Fore
SplineSet
120 145 m 0xba
 120 85 165 50 235 50 c 0
 355 50 410 120 410 200 c 2
 410 240 l 1
 380 246 355 250 305 250 c 0
 165 250 120 205 120 145 c 0xba
40 140 m 0
 40 260 150 320 285 320 c 0
 345 320 380 315 410 310 c 1
 410 340 l 2
 410 430 360 470 275 470 c 0
 190 470 140 430 140 370 c 1
 60 370 l 1
 60 470 145 540 275 540 c 0
 405 540 490 470 490 340 c 2xb6
 490 0 l 1
 420 0 l 1x71
 410 70 l 1
 375 9 315 -20 215 -20 c 0
 135 -20 40 20 40 140 c 0
EndSplineSet
Validated: 1
EndChar

StartChar: J
Encoding: 74 74 50
Width: 560
VWidth: 0
Flags: W
HStem: -20 72<174.898 345.516> 700 20G<396 480>
VStem: 40 84<99.362 190> 396 84<99.4 720>
LayerCount: 2
Fore
SplineSet
40 170 m 2
 40 190 l 1
 124 190 l 1
 124 170 l 2
 124 90 180 52 260 52 c 0
 340 52 396 90 396 170 c 2
 396 720 l 1
 480 720 l 1
 480 180 l 2
 480 40 380 -20 260 -20 c 0
 130 -20 40 40 40 170 c 2
EndSplineSet
Validated: 1
EndChar

StartChar: y
Encoding: 121 121 51
Width: 540
VWidth: 0
Flags: W
HStem: -210 70<60.6877 180.017> 500 20G<20 108.675 427.53 520>
DStem2: 100 520 20 520 0.397112 -0.91777<0 452.355> 245 0 330 0 0.343193 0.939265<-135.58 0 110.635 553.624>
LayerCount: 2
Fore
SplineSet
20 520 m 1
 100 520 l 1
 280 105 l 1
 435 520 l 1
 520 520 l 1
 330 0 l 2
 272 -160 220 -210 120 -210 c 0
 100 -210 69 -205 60 -200 c 1
 60 -135 l 5
 80 -138 100 -140 120 -140 c 0
 170 -140 200 -122 245 0 c 1
 20 520 l 1
EndSplineSet
Validated: 1
EndChar

StartChar: X
Encoding: 88 88 52
Width: 660
VWidth: 0
Flags: W
HStem: 0 21G<20 128.595 531.405 640> 296 128<266 394> 700 20G<20 128.595 531.405 640>
VStem: 20 94<0 94 626 720> 283 94<313 407> 546 94<0 94 626 720>
DStem2: 114 720 20 720 0.589904 -0.807473<0 366.431 469.788 836.219> 20 0 114 0 0.589904 0.807473<55.451 421.882 525.239 891.67>
CounterMasks: 1 1c
LayerCount: 2
Fore
SplineSet
114 0 m 1
 20 0 l 1
 283 360 l 1
 20 720 l 1
 114 720 l 1
 330 424 l 1
 546 720 l 1
 640 720 l 1
 377 360 l 1
 640 0 l 1
 546 0 l 1
 330 296 l 1
 114 0 l 1
EndSplineSet
Validated: 1
EndChar

StartChar: Y
Encoding: 89 89 53
Width: 660
VWidth: 0
Flags: W
HStem: 0 21G<288 372> 700 20G<20 128.744 531.256 640>
VStem: 20 94<626 720> 288 84<0 360> 546 94<626 720>
DStem2: 114 720 20 720 0.597144 -0.802134<0 364.008> 330 427 372 360 0.597144 0.802134<0 364.008>
CounterMasks: 1 38
LayerCount: 2
Fore
SplineSet
288 360 m 1
 20 720 l 1
 114 720 l 1
 330 427 l 1
 546 720 l 1
 640 720 l 1
 372 360 l 1
 372 0 l 1
 288 0 l 1
 288 360 l 1
EndSplineSet
Validated: 1
EndChar

StartChar: Z
Encoding: 90 90 54
Width: 640
VWidth: 0
Flags: W
HStem: 0 70<120 620> 650 70<40 500>
DStem2: 20 70 120 70 0.637568 0.770394<63.7568 752.861>
LayerCount: 2
Fore
SplineSet
20 0 m 1
 20 70 l 1
 500 650 l 1
 40 650 l 1
 40 720 l 1
 600 720 l 1
 600 650 l 1
 120 70 l 1
 620 70 l 1
 620 0 l 1
 20 0 l 1
EndSplineSet
Validated: 1
EndChar

StartChar: S
Encoding: 83 83 55
Width: 640
VWidth: 0
Flags: W
HStem: -20 72<206.914 433.086> 520 21G<496 580> 668 72<219.32 420.68>
VStem: 40 84<124.958 200> 60 84<464.416 595.506> 496 84<520 595.042> 516 84<125.869 255.165>
LayerCount: 2
Fore
SplineSet
40 200 m 1xf2
 124 200 l 1
 124 120 180 52 320 52 c 0
 460 52 516 120 516 200 c 0xf2
 516 260 458 305 320 329 c 0
 143 360 60 400 60 520 c 0
 60 640 150 740 320 740 c 0
 490 740 580 640 580 520 c 1
 496 520 l 1
 496 600 440 668 320 668 c 0
 200 668 144 600 144 520 c 0xec
 144 465 192 423 320 401 c 0
 507 368 600 315 600 200 c 0
 600 60 510 -20 320 -20 c 0
 130 -20 40 80 40 200 c 1xf2
EndSplineSet
Validated: 1
EndChar

StartChar: dollar
Encoding: 36 36 56
Width: 640
VWidth: 0
Flags: W
HStem: -19 72<204.173 290 350 435.827> 520 21G<496 580> 666 73<218.557 290 350 421.443>
VStem: 40 84<124.237 200> 60 84<466.628 597.022> 290 60<-80 -19 53 318 412 666 736.906 800> 496 84<520 595.637> 516 84<124.808 253.46>
LayerCount: 2
Fore
SplineSet
350 -80 m 1xe5
 290 -80 l 1
 290 -19 l 1
 121 -9 40 87 40 200 c 1
 124 200 l 1xf5
 124 126 172 62 290 53 c 1
 290 330 l 1
 142 359 60 407 60 520 c 0
 60 633 139 728 290 739 c 1
 290 800 l 1
 350 800 l 1
 350 739 l 1
 501 728 580 633 580 520 c 1
 496 520 l 1xee
 496 593 449 656 350 666 c 1
 350 400 l 1
 517 366 600 309 600 200 c 0
 600 68 519 -11 350 -19 c 1
 350 -80 l 1xe5
290 412 m 1
 290 666 l 1
 191 656 144 593 144 520 c 0xec
 144 470 184 434 290 412 c 1
350 318 m 1
 350 53 l 1
 468 62 516 126 516 200 c 0xe5
 516 255 466 294 350 318 c 1
EndSplineSet
Validated: 1
EndChar

StartChar: z
Encoding: 122 122 57
Width: 500
VWidth: 0
Flags: W
HStem: 0 70<120 480> 450 70<40 360>
DStem2: 20 70 120 70 0.666795 0.745241<66.6795 509.902>
LayerCount: 2
Fore
SplineSet
20 0 m 1
 20 70 l 1
 360 450 l 1
 40 450 l 1
 40 520 l 1
 460 520 l 1
 460 450 l 1
 120 70 l 1
 480 70 l 1
 480 0 l 1
 20 0 l 1
EndSplineSet
Validated: 1
EndChar

StartChar: x
Encoding: 120 120 58
Width: 540
VWidth: 0
Flags: W
HStem: 0 21G<20 125.764 414.236 520> 203 114<213 327> 500 20G<20 125.764 414.236 520>
VStem: 20 90<0 90 430 520> 225 90<215 305> 430 90<0 90 430 520>
DStem2: 110 520 20 520 0.619155 -0.785269<0 258.474 347.995 606.469> 20 0 110 0 0.619155 0.785269<55.7239 314.198 403.719 662.193>
CounterMasks: 1 1c
LayerCount: 2
Fore
SplineSet
430 520 m 1
 520 520 l 1
 315 260 l 1
 520 0 l 1
 430 0 l 1
 270 203 l 1
 110 0 l 1
 20 0 l 1
 225 260 l 1
 20 520 l 1
 110 520 l 1
 270 317 l 1
 430 520 l 1
EndSplineSet
Validated: 1
EndChar

StartChar: s
Encoding: 115 115 59
Width: 510
VWidth: 0
Flags: W
HStem: -20 70<161.359 348.641> 470 70<173.672 336.328>
VStem: 40 80<88.0509 140> 60 80<334.563 436.295> 370 80<380 435.22> 390 80<87.9115 183.237>
LayerCount: 2
Fore
SplineSet
40 140 m 1xe4
 120 140 l 1
 120 90 165 50 255 50 c 0
 345 50 390 90 390 140 c 0xe4
 390 170 363 210 255 230 c 0
 107 257 60 300 60 380 c 0
 60 460 125 540 255 540 c 0
 385 540 450 460 450 380 c 1
 370 380 l 1
 370 430 335 470 255 470 c 0
 175 470 140 430 140 380 c 0xd8
 140 340 166 316 255 300 c 0
 413 272 470 230 470 140 c 0
 470 50 395 -20 255 -20 c 0
 115 -20 40 50 40 140 c 1xe4
EndSplineSet
Validated: 1
EndChar

StartChar: comma
Encoding: 44 44 60
Width: 240
Flags: W
HStem: 0 90<80 120>
VStem: 80 80<0 90> 80 40<-120 -80> 120 40<-91.1267 0>
LayerCount: 2
Fore
SplineSet
80 0 m 1xc0
 80 90 l 1
 160 90 l 1xc0
 160 -20 l 2x90
 160 -60 146 -89 120 -120 c 5
 80 -120 l 1xa0
 106 -89 120 -60 120 -20 c 2
 120 0 l 1x90
 80 0 l 1xc0
EndSplineSet
Validated: 1
EndChar

StartChar: hyphen
Encoding: 45 45 64
Width: 300
VWidth: 50
Flags: W
HStem: 280 70<40 260>
VStem: 40 220<280 350>
LayerCount: 2
Fore
SplineSet
40 280 m 1
 40 350 l 1
 260 350 l 1
 260 280 l 5
 40 280 l 1
EndSplineSet
Validated: 1
EndChar

StartChar: exclamdown
Encoding: 161 161 65
Width: 260
Flags: W
HStem: -200 21G<80 180> 430 90<90 170>
VStem: 80 100<-200 135.333> 90 80<430 520>
LayerCount: 2
Fore
SplineSet
90 430 m 1xd0
 90 520 l 1
 170 520 l 1
 170 430 l 1
 90 430 l 1xd0
80 70 m 1xe0
 110 350 l 1
 150 350 l 1
 180 70 l 1
 180 -200 l 1
 80 -200 l 1
 80 70 l 1xe0
EndSplineSet
Validated: 1
EndChar

StartChar: cent
Encoding: 162 162 66
Width: 570
VWidth: 0
Flags: W
HStem: -18 71<205.641 260 320 383.141> 467 71<205.641 260 320 383.141>
VStem: 40 80<151.819 368.181> 260 60<-80 -16.0225 53 467 537.016 600> 450 80<90 170 350 430>
LayerCount: 2
Fore
SplineSet
120 260 m 0
 120 136 183 67 260 53 c 1
 260 467 l 1
 183 453 120 384 120 260 c 0
40 260 m 0
 40 418 135 523 260 538 c 1
 260 600 l 1
 320 600 l 1
 320 539 l 1
 442 528 512 450 530 350 c 1
 450 350 l 1
 441 403 400 456 320 467 c 1
 320 52 l 1
 400 63 441 117 450 170 c 1
 530 170 l 1
 512 70 442 -7 320 -18 c 1
 320 -80 l 1
 260 -80 l 1
 260 -18 l 1
 135 -3 40 102 40 260 c 0
EndSplineSet
Validated: 1
EndChar

StartChar: bracketleft
Encoding: 91 91 67
Width: 300
VWidth: 0
Flags: W
HStem: -120 70<160 280> 650 70<160 280>
VStem: 80 200<-120 -50 650 720> 80 80<-50 650>
LayerCount: 2
Fore
SplineSet
80 -120 m 1xe0
 80 720 l 1
 280 720 l 1
 280 650 l 1xe0
 160 650 l 1
 160 -50 l 1xd0
 280 -50 l 1
 280 -120 l 1
 80 -120 l 1xe0
EndSplineSet
Validated: 1
EndChar

StartChar: bracketright
Encoding: 93 93 68
Width: 300
VWidth: 0
Flags: W
HStem: -120 70<20 140> 650 70<20 140>
VStem: 20 200<-120 -50 650 720> 140 80<-50 650>
LayerCount: 2
Fore
SplineSet
20 -50 m 1xe0
 140 -50 l 1
 140 650 l 1xd0
 20 650 l 1
 20 720 l 1
 220 720 l 5
 220 -120 l 1
 20 -120 l 1
 20 -50 l 1xe0
EndSplineSet
Validated: 1
EndChar

StartChar: one
Encoding: 49 49 69
Width: 580
VWidth: 0
Flags: W
HStem: 0 21G<316 400> 700 20G<321.385 400>
VStem: 316 84<0 618>
DStem2: 120 590 120 508 0.877614 0.479369<0 185.435>
LayerCount: 2
Fore
SplineSet
120 508 m 1
 120 590 l 1
 358 720 l 1
 400 720 l 1
 400 0 l 1
 316 0 l 1
 316 618 l 1
 120 508 l 1
EndSplineSet
Validated: 1
EndChar

StartChar: bar
Encoding: 124 124 70
Width: 240
VWidth: 0
Flags: W
VStem: 80 80<-60 780>
LayerCount: 2
Fore
SplineSet
80 -60 m 1
 80 780 l 5
 160 780 l 1
 160 -60 l 1
 80 -60 l 1
EndSplineSet
Validated: 1
EndChar

StartChar: slash
Encoding: 47 47 71
Width: 520
VWidth: 0
Flags: W
DStem2: 20 -60 100 -60 0.429934 0.902861<34.3947 930.376>
LayerCount: 2
Fore
SplineSet
20 -60 m 1
 420 780 l 1
 500 780 l 1
 100 -60 l 1
 20 -60 l 1
EndSplineSet
Validated: 1
EndChar

StartChar: backslash
Encoding: 92 92 72
Width: 520
VWidth: 0
Flags: W
DStem2: 100 780 20 780 0.429934 -0.902861<0 895.982>
LayerCount: 2
Fore
SplineSet
20 780 m 1
 100 780 l 1
 500 -60 l 1
 420 -60 l 1
 20 780 l 1
EndSplineSet
Validated: 1
EndChar

StartChar: two
Encoding: 50 50 73
Width: 580
VWidth: 0
Flags: W
HStem: 0 72<189 540> 668 72<196.235 363.765>
VStem: 40 84<500 591.073> 436 84<417.338 593.043>
DStem2: 60 72 189 72 0.766192 0.642612<98.8387 454.449>
LayerCount: 2
Fore
SplineSet
40 500 m 1
 40 640 130 740 280 740 c 0
 430 740 520 630 520 500 c 0
 520 370 439.549624586 292.055083186 312 180 c 2
 189 72 l 1
 540 72 l 1
 540 0 l 1
 60 0 l 1
 60 72 l 1
 308 280 l 2
 377.15083188 338.024437526 436 430 436 500 c 0
 436 600 380 668 280 668 c 0
 180 668 124 600 124 500 c 1
 40 500 l 1
EndSplineSet
Validated: 1
EndChar

StartChar: grave
Encoding: 96 96 74
Width: 230
VWidth: 0
Flags: W
HStem: 600 150
VStem: 20 190
LayerCount: 2
Fore
SplineSet
20 750 m 1
 130 750 l 1
 210 600 l 1
 150 600 l 1
 20 750 l 1
EndSplineSet
Validated: 1
EndChar

StartChar: dotlessi
Encoding: 305 305 79
Width: 240
VWidth: 0
Flags: W
HStem: 0 21G<80 160> 500 20G<80 160>
VStem: 80 80<0 520>
LayerCount: 2
Fore
SplineSet
80 0 m 1
 80 520 l 1
 160 520 l 1
 160 0 l 1
 80 0 l 1
EndSplineSet
Validated: 1
EndChar

StartChar: dieresis
Encoding: 168 168 82
Width: 370
Flags: W
HStem: 660 90<60 140 230 310>
VStem: 60 80<660 750> 230 80<660 750>
LayerCount: 2
Fore
SplineSet
230 660 m 1
 230 750 l 1
 310 750 l 1
 310 660 l 1
 230 660 l 1
60 660 m 1
 60 750 l 5
 140 750 l 1
 140 660 l 1
 60 660 l 1
EndSplineSet
Validated: 1
EndChar

StartChar: acute
Encoding: 180 180 93
Width: 230
VWidth: 0
Flags: W
HStem: 600 150
VStem: 20 190
LayerCount: 2
Fore
SplineSet
20 600 m 1
 100 750 l 1
 210 750 l 1
 80 600 l 1
 20 600 l 1
EndSplineSet
Validated: 1
EndChar

StartChar: thorn
Encoding: 254 254 127
Width: 620
VWidth: 0
Flags: W
HStem: -200 21G<80 160> -20 70<254.653 409.895> 470 70<254.653 409.895> 700 20G<80 160>
VStem: 80 80<-200 100 149.258 370.742 420 720> 500 80<150.129 369.871>
LayerCount: 2
Fore
SplineSet
160 260 m 0
 160 120 240 50 330 50 c 0
 420 50 500 120 500 260 c 0
 500 400 420 470 330 470 c 0
 240 470 160 400 160 260 c 0
80 -200 m 1
 80 720 l 1
 160 720 l 1
 160 420 l 1
 181 476 250 540 350 540 c 0
 470 540 580 430 580 260 c 0
 580 90 470 -20 350 -20 c 0
 250 -20 181 44 160 100 c 1
 160 -200 l 1
 80 -200 l 1
EndSplineSet
Validated: 1
EndChar

StartChar: OE
Encoding: 338 338 136
Width: 1180
VWidth: 0
Flags: W
HStem: -20 70<277.081 483.656> 0 70<720 1160> 325 70<720 1130> 650 70<720 1160> 670 70<277.081 483.656>
VStem: 40 80<221.322 498.678> 640 80<70 120 220.05 325 395 499.95 600 650>
LayerCount: 2
Fore
SplineSet
120 360 m 0xae
 120 160 230 50 380 50 c 0
 530 50 640 160 640 360 c 0
 640 560 530 670 380 670 c 0
 230 670 120 560 120 360 c 0xae
40 360 m 0
 40 610 190 740 380 740 c 0xae
 500 740 590 686 640 600 c 1
 640 720 l 1
 1160 720 l 1
 1160 650 l 1
 720 650 l 1
 720 395 l 1
 1130 395 l 1
 1130 325 l 1
 720 325 l 1
 720 70 l 1
 1160 70 l 1
 1160 0 l 1
 640 0 l 1x76
 640 120 l 1
 590 34 500 -20 380 -20 c 0
 190 -20 40 110 40 360 c 0
EndSplineSet
Validated: 1
EndChar

StartChar: oe
Encoding: 339 339 137
Width: 1000
VWidth: 0
Flags: W
HStem: -20 70<207.666 373.714 627.632 798.79> 240 70<540 880> 470 70<207.666 373.714 626.982 797.451>
VStem: 40 80<145.838 374.162> 460 80<151.712 240 310 375.203> 870 80<90 170> 880 80<310 372.251>
LayerCount: 2
Fore
SplineSet
540 310 m 1xfa
 880 310 l 1
 880 390 820 470 710 470 c 0
 610 470 540 390 540 310 c 1xfa
120 260 m 0
 120 120 190 50 290 50 c 0
 390 50 460 120 460 260 c 0
 460 400 390 470 290 470 c 0
 190 470 120 400 120 260 c 0
40 260 m 0
 40 440 150 540 290 540 c 0
 380 540 457 499 501 422 c 1
 545 497 622 540 710 540 c 0
 850 540 960 430 960 240 c 1xfa
 540 240 l 1
 551 131 600 50 710 50 c 0
 810 50 860 111 870 170 c 1
 950 170 l 1xfc
 931 62 850 -20 710 -20 c 0
 622 -20 545 23 501 98 c 1
 457 21 380 -20 290 -20 c 0
 150 -20 40 80 40 260 c 0
EndSplineSet
Validated: 1
EndChar

StartChar: brokenbar
Encoding: 166 166 138
Width: 240
VWidth: 0
Flags: W
VStem: 80 80<-60 290 430 780>
LayerCount: 2
Fore
SplineSet
80 430 m 1
 80 780 l 5
 160 780 l 1
 160 430 l 1
 80 430 l 1
80 -60 m 1
 80 290 l 1
 160 290 l 1
 160 -60 l 1
 80 -60 l 1
EndSplineSet
Validated: 1
EndChar

StartChar: longs
Encoding: 383 383 139
Width: 290
VWidth: 0
Flags: W
HStem: 0 21G<90 170> 450 70<20 90> 670 70<182.444 270>
VStem: 90 80<0 450 520 659.778>
LayerCount: 2
Fore
SplineSet
20 450 m 1
 20 520 l 1
 90 520 l 1
 90 570 l 2
 90 710 140 740 200 740 c 0
 230 740 258 737 270 735 c 1
 270 665 l 1
 260 667 245 670 220 670 c 0
 180 670 170 640 170 570 c 2
 170 0 l 1
 90 0 l 1
 90 450 l 1
 20 450 l 1
EndSplineSet
Validated: 1
EndChar

StartChar: macron
Encoding: 175 175 142
Width: 300
VWidth: 0
Flags: W
HStem: 680 70<20 280>
VStem: 20 260<680 750>
LayerCount: 2
Fore
SplineSet
20 680 m 1
 20 750 l 1
 280 750 l 1
 280 680 l 1
 20 680 l 1
EndSplineSet
Validated: 1
EndChar

StartChar: underscore
Encoding: 95 95 151
Width: 500
VWidth: 0
Flags: W
HStem: -160 70<-20 520>
LayerCount: 2
Fore
SplineSet
-20 -90 m 1
 520 -90 l 1
 520 -160 l 1
 -20 -160 l 1
 -20 -90 l 1
EndSplineSet
Validated: 1
EndChar

StartChar: AE
Encoding: 198 198 154
Width: 760
VWidth: 0
Flags: W
HStem: 0 72<434 740> 219 72<207 350> 324 72<434 710> 648 72<334 350 434 740>
VStem: 350 84<72 219 291 324 396 648>
DStem2: 20 0 104 0 0.339644 0.940554<28.5301 261.004 337.215 718.008>
LayerCount: 2
Fore
SplineSet
740 720 m 1
 740 648 l 1
 434 648 l 1
 434 396 l 1
 710 396 l 1
 710 324 l 1
 434 324 l 1
 434 72 l 1
 740 72 l 1
 740 0 l 1
 350 0 l 1
 350 219 l 1
 182 219 l 1
 104 0 l 1
 20 0 l 1
 280 720 l 1
 740 720 l 1
350 291 m 1
 350 650 l 1
 334 650 l 5
 207 291 l 1
 350 291 l 1
EndSplineSet
Validated: 1
EndChar

StartChar: endash
Encoding: 8211 8211 155
Width: 500
VWidth: 0
Flags: W
HStem: 280 70<40 460>
LayerCount: 2
Fore
SplineSet
40 280 m 1
 40 350 l 1
 460 350 l 1
 460 280 l 1
 40 280 l 1
EndSplineSet
Validated: 1
EndChar

StartChar: emdash
Encoding: 8212 8212 156
Width: 1000
VWidth: 0
Flags: W
HStem: 280 70<40 960>
LayerCount: 2
Fore
SplineSet
40 280 m 1
 40 350 l 1
 960 350 l 1
 960 280 l 1
 40 280 l 1
EndSplineSet
Validated: 1
EndChar

StartChar: paragraph
Encoding: 182 182 157
Width: 520
VWidth: 0
Flags: W
HStem: 0 21G<360 440> 700 20G<190 440>
VStem: 40 400<398.163 611.837> 360 80<0 290>
LayerCount: 2
Fore
SplineSet
40 505 m 0xe0
 40 655 140 720 240 720 c 2
 440 720 l 1
 440 0 l 1
 360 0 l 1
 360 290 l 1xd0
 240 290 l 2
 140 290 40 355 40 505 c 0xe0
EndSplineSet
Validated: 1
EndChar

StartChar: f_i
Encoding: 64257 64257 160
Width: 520
VWidth: 0
Flags: W
HStem: 0 21G<90 170 360 440> 450 70<20 90 170 260> 670 70<198.911 339.355>
VStem: 90 80<0 450 520 641.448> 360 80<0 520 620 648.125>
LayerCount: 2
Fore
SplineSet
260 520 m 1
 260 450 l 1
 170 450 l 1
 170 0 l 1
 90 0 l 1
 90 450 l 1
 20 450 l 1
 20 520 l 1
 90 520 l 1
 90 570 l 2
 90 700 175 740 265 740 c 0
 355 740 440 700 440 620 c 1
 360 620 l 1
 360 640 325 670 265 670 c 0
 205 670 170 640 170 570 c 2
 170 520 l 1
 260 520 l 1
360 520 m 1
 440 520 l 1
 440 0 l 1
 360 0 l 1
 360 520 l 1
EndSplineSet
Validated: 1
LCarets2: 1 0
Ligature2: "about f" f i
EndChar

StartChar: f_l
Encoding: 64258 64258 163
Width: 520
VWidth: 0
Flags: W
HStem: 0 21G<90 170 360 440> 450 70<20 90 170 260> 670 70<198.911 339.355>
VStem: 90 80<0 450 520 641.448> 360 80<0 648.125>
LayerCount: 2
Fore
SplineSet
260 520 m 1
 260 450 l 1
 170 450 l 1
 170 0 l 1
 90 0 l 1
 90 450 l 1
 20 450 l 1
 20 520 l 1
 90 520 l 1
 90 570 l 2
 90 700 175 740 265 740 c 0
 355 740 440 700 440 620 c 2
 440 0 l 1
 360 0 l 1
 360 620 l 2
 360 640 325 670 265 670 c 0
 205 670 170 640 170 570 c 2
 170 520 l 1
 260 520 l 1
EndSplineSet
Validated: 1
LCarets2: 1 0
Ligature2: "about f" f l
EndChar

StartChar: caron
Encoding: 711 711 164
Width: 300
VWidth: 0
Flags: W
HStem: 600 50<110 190>
VStem: 20 70<680 750> 210 70<680 750>
DStem2: 90 750 20 750 0.514496 -0.857493<0 116.619> 150 650 190 600 0.514496 0.857493<0 116.619>
LayerCount: 2
Fore
SplineSet
20 750 m 1
 90 750 l 1
 150 650 l 5
 210 750 l 1
 280 750 l 1
 190 600 l 1
 110 600 l 1
 20 750 l 1
EndSplineSet
Validated: 1
EndChar

StartChar: circumflex
Encoding: 710 710 165
Width: 300
VWidth: 0
Flags: W
HStem: 700 50<110 190>
VStem: 20 70<600 670> 210 70<600 670>
DStem2: 20 600 90 600 0.514496 0.857493<36.0147 152.634> 190 750 150 700 0.514496 -0.857493<22.2948 138.914>
LayerCount: 2
Fore
SplineSet
20 600 m 1
 110 750 l 1
 190 750 l 1
 280 600 l 1
 210 600 l 1
 150 700 l 1
 90 600 l 1
 20 600 l 1
EndSplineSet
Validated: 1
EndChar

StartChar: uni0237
Encoding: 567 567 179
Width: 240
VWidth: 0
Flags: W
HStem: -220 70<-19.0921 68.4627> 500 20G<80 160>
VStem: 80 80<-138.89 520>
LayerCount: 2
Fore
SplineSet
-20 -145 m 1
 0 -148 11 -150 31 -150 c 0
 71 -150 80 -120 80 -50 c 2
 80 520 l 1
 160 520 l 1
 160 -50 l 2
 160 -170 130 -220 50 -220 c 0
 10 -220 -1 -217 -20 -210 c 1
 -20 -145 l 1
EndSplineSet
Validated: 1
EndChar

StartChar: ae
Encoding: 230 230 203
Width: 950
VWidth: 0
Flags: W
HStem: -20 70<157.399 333.835 577.157 748.79> 240 70<307.326 410 490 830> 250 70<176.85 408.594> 470 70<185.677 361.062 575.635 747.451>
VStem: 40 80<84.9676 202.881> 60 80<370 426.889> 410 80<151.712 240 310 385.417> 820 80<90 170> 830 80<310 372.251>
LayerCount: 2
Fore
SplineSet
490 310 m 1xd280
 830 310 l 1
 830 390 770 470 660 470 c 0
 560 470 490 390 490 310 c 1xd280
40 140 m 0xdb
 40 260 150 320 285 320 c 4xbb
 345 320 380 315 410 310 c 5
 410 340 l 2
 410 430 360 470 275 470 c 0
 190 470 140 430 140 370 c 1
 60 370 l 1
 60 470 145 540 275 540 c 0
 365 540 429 506 465 442 c 1
 510 504 580 540 660 540 c 0
 800 540 910 430 910 240 c 1xd680
 490 240 l 1
 501 131 550 50 660 50 c 0
 760 50 810 111 820 170 c 1
 900 170 l 1
 881 62 800 -20 660 -20 c 0
 571 -20 493 24 449 101 c 1
 385 9 325 -20 215 -20 c 0
 135 -20 40 20 40 140 c 0xdb
120 145 m 0
 120 85 165 50 235 50 c 0
 355 50 410 120 410 200 c 2
 410 240 l 5xda
 380 246 355 250 305 250 c 4
 165 250 120 205 120 145 c 0
EndSplineSet
Validated: 1
EndChar

StartChar: seven
Encoding: 55 55 204
Width: 580
VWidth: 0
Flags: W
HStem: 0 21G<146 238.48> 648 72<60 421>
DStem2: 146 0 230 0 0.390342 0.92067<32.7888 703.938>
LayerCount: 2
Fore
SplineSet
60 648 m 1
 60 720 l 1
 520 720 l 1
 520 684 l 1
 230 0 l 1
 146 0 l 5
 421 648 l 5
 60 648 l 1
EndSplineSet
Validated: 1
EndChar

StartChar: section
Encoding: 167 167 205
Width: 510
VWidth: 0
Flags: W
HStem: -60 70<173.672 336.328> 670 70<173.672 336.328>
VStem: 40 80<303.424 393.879> 60 80<44.78 100 533.536 636.295> 370 80<43.7047 146.464 580 635.22> 390 80<286.121 376.576>
LayerCount: 2
Fore
SplineSet
120 340 m 0xe4
 120 310 157 278 255 260 c 0
 268 258 280 255 291 252 c 1
 357 261 390 297 390 340 c 0
 390 370 353 402 255 420 c 0
 242 422 230 425 219 428 c 1
 153 419 120 383 120 340 c 0xe4
40 340 m 0
 40 393 66 439 117 468 c 1
 76 496 60 534 60 580 c 0
 60 660 125 740 255 740 c 0
 385 740 450 660 450 580 c 1
 370 580 l 1xd8
 370 630 335 670 255 670 c 0
 175 670 140 630 140 580 c 0
 140 540 166 516 255 500 c 0
 403 474 470 430 470 340 c 0xd4
 470 287 444 241 393 212 c 1
 434 184 450 146 450 100 c 0
 450 20 385 -60 255 -60 c 0
 125 -60 60 20 60 100 c 1
 140 100 l 1
 140 50 175 10 255 10 c 0
 335 10 370 50 370 100 c 0xd8
 370 140 344 164 255 180 c 0
 107 206 40 250 40 340 c 0
EndSplineSet
Validated: 1
EndChar

StartChar: four
Encoding: 52 52 206
Width: 580
VWidth: 0
Flags: W
HStem: 0 21G<356 440> 159 72<124 356 440 540> 700 20G<343.076 440>
VStem: 356 84<0 159 231 590>
DStem2: 40 231 124 231 0.542753 0.839893<45.5912 473.031>
LayerCount: 2
Fore
SplineSet
356 590 m 1
 124 231 l 1
 356 231 l 1
 356 590 l 1
440 720 m 1
 440 231 l 1
 540 231 l 1
 540 159 l 1
 440 159 l 1
 440 0 l 1
 356 0 l 1
 356 159 l 1
 40 159 l 1
 40 231 l 1
 356 720 l 1
 440 720 l 1
EndSplineSet
Validated: 1
EndChar

StartChar: eight
Encoding: 56 56 207
Width: 580
VWidth: 0
Flags: W
HStem: -20 72<193.302 386.698> 354 72<205.688 374.312> 668 72<204.986 378.545>
VStem: 40 84<118.983 284.478> 70 84<477.744 619.161> 430 84<478.955 618.018> 456 84<118.983 284.478>
LayerCount: 2
Fore
SplineSet
154 550 m 0xec
 154 490 190 426 290 426 c 0
 390 426 430 490 430 550 c 0
 430 610 390 668 290 668 c 0
 190 668 154 610 154 550 c 0xec
124 200 m 0xf2
 124 120 170 52 290 52 c 0
 410 52 456 120 456 200 c 0
 456 280 410 354 290 354 c 0
 170 354 124 280 124 200 c 0xf2
40 200 m 0
 40 300 93 356 170 392 c 1
 108 425 70 475 70 550 c 0
 70 640 150 740 290 740 c 0
 430 740 514 640 514 550 c 0xec
 514 475 476 425 414 392 c 1
 491 356 540 300 540 200 c 0
 540 80 450 -20 290 -20 c 0
 130 -20 40 80 40 200 c 0
EndSplineSet
Validated: 1
EndChar

StartChar: asciicircum
Encoding: 94 94 208
Width: 400
VWidth: 0
Flags: W
HStem: 640 60<160 240>
DStem2: 20 420 90 420 0.447214 0.894427<31.305 277.272> 240 700 200 640 0.447214 -0.894427<35.7771 281.745>
LayerCount: 2
Fore
SplineSet
90 420 m 5
 20 420 l 5
 160 700 l 5
 240 700 l 5
 380 420 l 5
 310 420 l 5
 200 640 l 5
 90 420 l 5
EndSplineSet
Validated: 1
EndChar

StartChar: question
Encoding: 63 63 209
Width: 520
Flags: W
HStem: 0 90<220 300> 520 21G<40 120> 670 70<179.441 340.559>
VStem: 40 80<520 607.012> 220 80<0 90 170 279.002> 400 80<448.02 607.652>
CounterMasks: 1 1c
LayerCount: 2
Fore
SplineSet
220 0 m 1
 220 90 l 1
 300 90 l 1
 300 0 l 1
 220 0 l 1
40 520 m 1
 40 660 140 740 260 740 c 0
 380 740 480 660 480 520 c 0
 480 460 446 399 400 360 c 0
 339 309 300 270 300 210 c 2
 300 170 l 1
 220 170 l 1
 220 230 l 2
 220 280 259 329 320 380 c 0
 366 419 400 470 400 520 c 0
 400 610 350 670 260 670 c 0
 170 670 120 610 120 520 c 1
 40 520 l 1
EndSplineSet
Validated: 1
EndChar

StartChar: questiondown
Encoding: 191 191 216
Width: 520
Flags: W
HStem: -220 70<179.441 340.559> -20 20G<400 480> 430 90<220 300>
VStem: 40 80<-87.652 66.5654> 220 80<236.478 350 430 520> 400 80<-87.0117 0>
CounterMasks: 1 1c
LayerCount: 2
Fore
SplineSet
220 430 m 1
 220 520 l 1
 300 520 l 1
 300 430 l 1
 220 430 l 1
40 0 m 0
 40 60 74 111 120 150 c 0
 181 201 220 250 220 310 c 2
 220 350 l 1
 300 350 l 1
 300 290 l 2
 300 240 261 181 200 130 c 0
 154 91 120 50 120 0 c 0
 120 -90 170 -150 260 -150 c 0
 350 -150 400 -90 400 0 c 1
 480 0 l 1
 480 -140 380 -220 260 -220 c 0
 140 -220 40 -140 40 0 c 0
EndSplineSet
Validated: 1
EndChar

StartChar: six
Encoding: 54 54 217
Width: 580
VWidth: 0
Flags: W
HStem: -20 72<210.364 381.528> 408 72<208.942 381.752> 668 72<218.073 379.83>
VStem: 40 79<380 536.485> 441 84<560 644> 461 84<135.731 324.269>
LayerCount: 2
Fore
SplineSet
129 230 m 0xf4
 129 120 195 52 295 52 c 0
 395 52 461 120 461 230 c 0
 461 340 395 408 295 408 c 0
 195 408 129 340 129 230 c 0xf4
40 360 m 0
 40 660 155 740 305 740 c 0
 395 740 502 688 525 560 c 1
 441 560 l 1xf8
 431 619 375 668 305 668 c 0
 205 668 119 610 119 380 c 1
 154 441 225 480 315 480 c 0
 425 480 545 390 545 230 c 0
 545 70 435 -20 295 -20 c 0
 135 -20 40 80 40 360 c 0
EndSplineSet
Validated: 1
EndChar

StartChar: nine
Encoding: 57 57 218
Width: 580
VWidth: 0
Flags: W
HStem: -20 72<205.17 366.927> 240 72<203.248 376.058> 668 72<203.472 374.636>
VStem: 40 84<395.731 584.269> 60 84<76 160> 466 79<183.515 340>
LayerCount: 2
Fore
SplineSet
124 490 m 0xf4
 124 380 190 312 290 312 c 0
 390 312 456 380 456 490 c 0
 456 600 390 668 290 668 c 0
 190 668 124 600 124 490 c 0xf4
40 490 m 0
 40 650 150 740 290 740 c 0
 450 740 545 640 545 360 c 0
 545 60 430 -20 280 -20 c 0
 190 -20 83 32 60 160 c 1
 144 160 l 1xec
 154 101 210 52 280 52 c 0
 380 52 466 110 466 340 c 1
 431 279 360 240 270 240 c 0
 160 240 40 330 40 490 c 0
EndSplineSet
Validated: 1
EndChar

StartChar: apostrophe
Encoding: 700 700 219
Width: 240
Flags: W
HStem: 530 21G<80 133> 630 90<80 120>
VStem: 80 80<630 720> 80 40<530 570> 120 40<558.873 630>
LayerCount: 2
Fore
SplineSet
80 530 m 1xd0
 106 561 120 590 120 630 c 1xc8
 80 630 l 1
 80 720 l 5
 160 720 l 1
 160 630 l 2xe0
 160 590 146 561 120 530 c 1
 80 530 l 1xd0
EndSplineSet
Validated: 1
EndChar

StartChar: quoteleftmod
Encoding: 699 699 220
Width: 240
Flags: W
HStem: 530 90<120 160> 700 20G<107 160>
VStem: 80 80<530 620> 80 40<620 691.127> 120 40<680 720>
LayerCount: 2
Fore
SplineSet
80 530 m 1xe0
 80 620 l 2xe0
 80 660 94 689 120 720 c 1
 160 720 l 1xc8
 134 689 120 660 120 620 c 1xd0
 160 620 l 1
 160 530 l 1
 80 530 l 1xe0
EndSplineSet
Validated: 1
EndChar

StartChar: apostropherev
Encoding: 701 701 221
Width: 240
Flags: W
HStem: 530 21G<107 160> 630 90<120 160>
VStem: 80 80<630 720> 80 40<558.873 630> 120 40<530 570>
LayerCount: 2
Fore
SplineSet
80 630 m 2xe0
 80 720 l 1
 160 720 l 1
 160 630 l 1xe0
 120 630 l 1xd0
 120 590 134 561 160 530 c 1
 120 530 l 1xc8
 94 561 80 590 80 630 c 2xe0
EndSplineSet
Validated: 1
EndChar

StartChar: breve
Encoding: 728 728 228
Width: 0
VWidth: 0
Flags: W
HStem: 570 60<-191.665 -108.12> 700 20G<-280 -209 -90 -20>
VStem: -280 71<648.561 720> -90 70<648.561 720>
LayerCount: 2
Fore
SplineSet
-280 720 m 1
 -209 720 l 1
 -209 670 -190 630 -150 630 c 0
 -110 630 -90 670 -90 720 c 1
 -20 720 l 1
 -20 630 -70 570 -150 570 c 0
 -230 570 -280 630 -280 720 c 1
EndSplineSet
Validated: 1
EndChar

StartChar: ringhalfright
Encoding: 702 702 241
Width: 210
VWidth: 0
Flags: W
HStem: 460 70<20 91.4392> 650 70<20 91.4392>
VStem: 110 60<548.12 631.88>
LayerCount: 2
Fore
SplineSet
20 460 m 1
 20 530 l 1
 70 530 110 550 110 590 c 0
 110 630 70 650 20 650 c 1
 20 720 l 1
 110 720 170 670 170 590 c 0
 170 510 110 460 20 460 c 1
EndSplineSet
Validated: 1
EndChar

StartChar: ringhalfleft
Encoding: 703 703 247
Width: 210
VWidth: 0
Flags: W
HStem: 460 70<118.561 190> 650 70<118.561 190>
VStem: 40 60<548.12 631.88>
LayerCount: 2
Fore
SplineSet
40 590 m 0
 40 670 100 720 190 720 c 1
 190 650 l 1
 140 650 100 630 100 590 c 0
 100 550 140 530 190 530 c 1
 190 460 l 1
 100 460 40 510 40 590 c 0
EndSplineSet
Validated: 1
EndChar

StartChar: breveinvertedcmb
Encoding: 785 785 250
Width: 0
VWidth: 0
Flags: W
HStem: 660 60<-191.88 -108.12>
VStem: -280 70<570 641.439> -90 70<570 641.439>
LayerCount: 2
Fore
SplineSet
-280 570 m 1
 -280 660 -230 720 -150 720 c 0
 -70 720 -20 660 -20 570 c 1
 -90 570 l 1
 -90 620 -110 660 -150 660 c 0
 -190 660 -210 620 -210 570 c 1
 -280 570 l 1
EndSplineSet
Validated: 1
EndChar

StartChar: three
Encoding: 51 51 251
Width: 580
VWidth: 0
Flags: W
HStem: -20 72<193.84 386.16> 334 72<230 362.178> 540 21G<70 154> 668 72<211.196 368.804>
VStem: 40 84<115.463 190> 70 84<540 613.438> 426 84<460.844 613.617> 456 84<114.704 270.76>
LayerCount: 2
Fore
SplineSet
40 190 m 1xf9
 124 190 l 1
 124 110 180 52 290 52 c 0
 400 52 456 110 456 190 c 0xf9
 456 280 410 334 230 334 c 5
 230 406 l 1
 390 406 426 460 426 540 c 0
 426 610 380 668 290 668 c 0
 200 668 154 610 154 540 c 1
 70 540 l 1
 70 640 150 740 290 740 c 0
 430 740 510 640 510 540 c 0xf6
 510 470 476 405 414 372 c 1
 491 336 540 290 540 190 c 0
 540 80 450 -20 290 -20 c 0
 130 -20 40 80 40 190 c 1xf9
EndSplineSet
Validated: 1
EndChar

StartChar: ring
Encoding: 730 730 252
Width: 0
VWidth: 0
Flags: W
HStem: 440 60<-191.88 -108.12> 660 60<-191.88 -108.12>
VStem: -280 70<517.629 642.371> -90 70<517.629 642.371>
LayerCount: 2
Fore
SplineSet
-210 580 m 0
 -210 540 -190 500 -150 500 c 0
 -110 500 -90 540 -90 580 c 0
 -90 620 -110 660 -150 660 c 0
 -190 660 -210 620 -210 580 c 0
-280 580 m 0
 -280 660 -230 720 -150 720 c 0
 -70 720 -20 660 -20 580 c 0
 -20 500 -70 440 -150 440 c 0
 -230 440 -280 500 -280 580 c 0
EndSplineSet
Validated: 1
EndChar

StartChar: Oslash
Encoding: 216 216 255
Width: 760
VWidth: 0
Flags: W
HStem: -20 70<272.185 482.919> 670 70<277.081 487.573>
VStem: 40 80<221.425 498.678> 640 80<221.322 499.622>
DStem2: 80 -20 145 -60 0.559473 0.828849<3.21179 108.585 190.822 774.518 857.731 965.194>
LayerCount: 2
Fore
SplineSet
244 87 m 1
 283 62 329 50 380 50 c 0
 530 50 640 160 640 360 c 0
 640 454 616 529 574 581 c 1
 244 87 l 1
120 360 m 0
 120 265 145 190 187 138 c 1
 519 631 l 1
 479 657 432 670 380 670 c 0
 230 670 120 560 120 360 c 0
40 360 m 0
 40 610 190 740 380 740 c 0
 447 740 509 724 561 692 c 1
 620 780 l 5
 680 740 l 5
 618 647 l 1
 681 583 720 487 720 360 c 0
 720 110 570 -20 380 -20 c 0
 315 -20 253 -4 202 26 c 1
 145 -60 l 5
 80 -20 l 5
 142 72 l 1
 79 136 40 233 40 360 c 0
EndSplineSet
Validated: 1
EndChar

StartChar: oslash
Encoding: 248 248 256
Width: 580
VWidth: 0
Flags: W
HStem: -20 70<220.189 372.334> 470 70<207.666 363.795>
VStem: 40 80<145.82 374.162> 460 80<145.838 375.095>
DStem2: 80 -20 145 -60 0.514496 0.857493<0 75.6503 155.206 541.593 621.952 696.284>
LayerCount: 2
Fore
SplineSet
219 64 m 1
 240 54 264 50 290 50 c 0
 390 50 460 120 460 260 c 0
 460 323 446 372 421 407 c 1
 219 64 l 1
120 260 m 0
 120 196 135 148 160 113 c 1
 365 454 l 1
 343 464 317 470 290 470 c 0
 190 470 120 400 120 260 c 0
40 260 m 0
 40 440 150 540 290 540 c 0
 330 540 368 532 401 516 c 1
 440 580 l 5
 500 540 l 5
 460 474 l 1
 509 426 540 354 540 260 c 0
 540 80 430 -20 290 -20 c 0
 251 -20 215 -12 182 3 c 1
 145 -60 l 5
 80 -20 l 5
 119 46 l 1
 70 94 40 166 40 260 c 0
EndSplineSet
Validated: 1
EndChar

StartChar: equal
Encoding: 61 61 257
Width: 500
VWidth: -50
Flags: W
HStem: 205 70<40 460> 355 70<40 460>
LayerCount: 2
Fore
SplineSet
40 355 m 5
 40 425 l 1
 460 425 l 1
 460 355 l 1
 40 355 l 5
40 205 m 1
 40 275 l 1
 460 275 l 1
 460 205 l 1
 40 205 l 1
EndSplineSet
Validated: 1
EndChar

StartChar: ogonek
Encoding: 731 731 258
Width: 270
Flags: W
HStem: -210 55<119.125 229.157> -20 20G<107 199>
VStem: 40 70<-143.521 -52.1179>
LayerCount: 2
Fore
SplineSet
40 -110 m 0
 40 -60 74 -24 140 0 c 1
 199 0 l 1
 121 -45 110 -80 110 -110 c 0
 110 -140 140 -155 180 -155 c 0
 200 -155 215 -148 230 -135 c 1
 230 -190 l 1
 209 -202 190 -210 160 -210 c 0
 90 -210 40 -180 40 -110 c 0
EndSplineSet
Validated: 1
EndChar

StartChar: Aogonek
Encoding: 260 260 259
Width: 660
VWidth: 0
HStem: -203 55<543.125 653.157> 0 21G<20 111.032> 219 72<206 454> 642 78<276 384>
VStem: 464 70<-136.521 -45.6693>
DStem2: 20 0 104 0 0.33501 0.942215<28.1408 260.282 336.496 708.755> 384 720 330 642 0.33501 -0.942215<55.4022 427.661 503.875 734.07>
LayerCount: 2
Fore
SplineSet
454 291 m 1
 330 642 l 1
 206 291 l 1
 454 291 l 1
104 0 m 1
 20 0 l 1
 276 720 l 1
 384 720 l 1
 640 0 l 1
 611 -0 l 1
 544 -42 534 -75 534 -103 c 0
 534 -133 564 -148 604 -148 c 0
 624 -148 639 -141 654 -128 c 1
 654 -183 l 1
 633 -195 614 -203 584 -203 c 0
 514 -203 464 -173 464 -103 c 0
 464 -55 495 -21 555 3 c 1
 479 219 l 1
 181 219 l 1
 104 0 l 1
EndSplineSet
Validated: 1
EndChar

StartChar: aogonek
Encoding: 261 261 260
Width: 550
VWidth: 0
Flags: W
HStem: -205 55<404.125 514.157> -20 70<157.399 333.173> 250 70<176.85 408.594> 470 70<185.677 359.367>
VStem: 40 80<84.9676 202.881> 60 80<370 426.889> 325 70<-138.521 -48.1664> 410 80<120.409 243.863 310 421.39>
LayerCount: 2
Fore
SplineSet
40 140 m 0xfb
 40 260 150 320 285 320 c 4
 345 320 380 315 410 310 c 5
 410 340 l 2
 410 430 360 470 275 470 c 0
 190 470 140 430 140 370 c 1
 60 370 l 1xf7
 60 470 145 540 275 540 c 0
 405 540 490 470 490 340 c 2
 490 0 l 1
 476 -0 l 1
 406 -43 395 -76 395 -105 c 0
 395 -135 425 -150 465 -150 c 0
 485 -150 500 -143 515 -130 c 1
 515 -185 l 1
 494 -197 475 -205 445 -205 c 0
 375 -205 325 -175 325 -105 c 0
 325 -56 358 -21 420 3 c 1
 410 70 l 1
 375 9 315 -20 215 -20 c 0
 135 -20 40 20 40 140 c 0xfb
120 145 m 0xfb
 120 85 165 50 235 50 c 0
 355 50 410 120 410 200 c 2
 410 240 l 5
 380 246 355 250 305 250 c 4
 165 250 120 205 120 145 c 0xfb
EndSplineSet
Validated: 1
EndChar

StartChar: Iogonek
Encoding: 302 302 261
Width: 240
VWidth: 0
HStem: -203 55<53.3099 184.155> 700 20G<80 160>
VStem: -25 70<-136.175 -48.1645> 80 80<0 720>
LayerCount: 2
Fore
SplineSet
140 0 m 1
 69 -34 45 -56 45 -103 c 0
 45 -133 75 -148 125 -148 c 0
 150 -148 170 -141 185 -128 c 1
 185 -183 l 1
 164 -195 145 -203 115 -203 c 0
 35 -203 -25 -173 -25 -103 c 0
 -25 -54 17 -19 80 5 c 1
 80 720 l 1
 160 720 l 1
 160 0 l 1
 140 0 l 1
EndSplineSet
Validated: 1
EndChar

StartChar: iogonek
Encoding: 303 303 262
Width: 240
VWidth: 0
HStem: -203 55<53.3099 184.155> 500 20G<80 160> 630 90<80 160>
VStem: -25 70<-136.175 -48.1645> 80 80<0 520 630 720>
LayerCount: 2
Fore
SplineSet
140 0 m 1
 69 -34 45 -56 45 -103 c 0
 45 -133 75 -148 125 -148 c 0
 150 -148 170 -141 185 -128 c 1
 185 -183 l 1
 164 -195 145 -203 115 -203 c 0
 35 -203 -25 -173 -25 -103 c 0
 -25 -54 17 -19 80 5 c 1
 80 520 l 1
 160 520 l 1
 160 0 l 1
 140 0 l 1
80 630 m 1
 80 720 l 1
 160 720 l 1
 160 630 l 1
 80 630 l 1
EndSplineSet
Validated: 1
EndChar

StartChar: Eogonek
Encoding: 280 280 263
Width: 620
VWidth: 0
HStem: -203 55<489.125 599.157> 0 72<164 492 527.266 600> 324 72<164 570> 648 72<164 600>
VStem: 80 84<72 324 396 648> 410 70<-136.521 -45.2877>
LayerCount: 2
Fore
SplineSet
80 0 m 1
 80 720 l 1
 600 720 l 1
 600 648 l 1
 164 648 l 1
 164 396 l 1
 570 396 l 1
 570 324 l 1
 164 324 l 1
 164 72 l 1
 600 72 l 1
 600 0 l 1
 557 -0 l 1
 490 -42 480 -75 480 -103 c 0
 480 -133 510 -148 550 -148 c 0
 570 -148 585 -141 600 -128 c 1
 600 -183 l 1
 579 -195 560 -203 530 -203 c 0
 460 -203 410 -173 410 -103 c 0
 410 -58 438 -24 492 0 c 1
 80 0 l 1
EndSplineSet
Validated: 1
EndChar

StartChar: eogonek
Encoding: 281 281 264
Width: 580
VWidth: 0
HStem: -223 55<239.125 349.157> 240 70<120 460> 470 70<207.666 377.451>
VStem: 40 80<151.712 240 310 379.157> 160 70<-156.521 -66.5568> 450 80<119.183 170> 460 80<310 372.251>
LayerCount: 2
Fore
SplineSet
40 260 m 0xfc
 40 430 150 540 290 540 c 0
 430 540 540 430 540 240 c 1xfa
 120 240 l 1
 131 131 180 50 290 50 c 0
 390 50 440 111 450 170 c 1
 530 170 l 1
 512 67 438 -13 309 -20 c 1
 241 -62 230 -94 230 -123 c 0
 230 -153 260 -168 300 -168 c 0
 320 -168 335 -161 350 -148 c 1
 350 -203 l 1
 329 -215 310 -223 280 -223 c 0
 210 -223 160 -193 160 -123 c 0
 160 -76 191 -41 250 -17 c 1
 130 2 40 106 40 260 c 0xfc
120 310 m 1
 460 310 l 1
 460 390 400 470 290 470 c 0
 190 470 120 390 120 310 c 1
EndSplineSet
Validated: 1
EndChar

StartChar: Uogonek
Encoding: 370 370 265
Width: 680
VWidth: 0
HStem: -223 55<289.125 399.157> -20 70<327.834 435.414> 700 20G<80 160 520 600>
VStem: 80 80<138.607 720> 210 70<-156.521 -65.9361> 520 80<139.609 720>
LayerCount: 2
Fore
SplineSet
80 250 m 2
 80 720 l 1
 160 720 l 1
 160 250 l 2
 160 130 210 50 340 50 c 0
 470 50 520 130 520 250 c 2
 520 720 l 1
 600 720 l 1
 600 250 l 2
 600 86 525 -13 358 -20 c 1
 290 -62 280 -94 280 -123 c 0
 280 -153 310 -168 350 -168 c 0
 370 -168 385 -161 400 -148 c 1
 400 -203 l 1
 379 -215 360 -223 330 -223 c 0
 260 -223 210 -193 210 -123 c 0
 210 -76 240 -42 298 -18 c 1
 148 -3 80 94 80 250 c 2
EndSplineSet
Validated: 1
EndChar

StartChar: uogonek
Encoding: 371 371 266
Width: 590
VWidth: 0
Flags: W
HStem: -206 55<378.31 509.155> -20 70<207.229 351.334> 500 20G<70 150 410 490>
VStem: 70 80<106.978 520> 300 70<-139.175 -50.0241> 410 80<0 64 105.527 520>
LayerCount: 2
Fore
SplineSet
70 160 m 2
 70 520 l 1
 150 520 l 1
 150 180 l 2
 150 110 200 50 280 50 c 0
 360 50 410 110 410 180 c 2
 410 520 l 1
 490 520 l 1
 490 0 l 1
 471 0 l 1
 396 -36 370 -58 370 -106 c 0
 370 -136 400 -151 450 -151 c 0
 475 -151 495 -144 510 -131 c 1
 510 -186 l 1
 489 -198 470 -206 440 -206 c 0
 360 -206 300 -176 300 -106 c 0
 300 -56 344 -20 410 4 c 1
 410 64 l 1
 375 3 330 -20 250 -20 c 0
 160 -20 70 50 70 160 c 2
EndSplineSet
Validated: 1
EndChar

StartChar: Thorn
Encoding: 222 222 267
Width: 630
VWidth: 0
Flags: W
HStem: 0 21G<80 160> 145 70<160 453.879> 505 70<160 453.879> 700 20G<80 160>
VStem: 80 80<0 145 215 505 575 720> 510 80<277.522 442.478>
LayerCount: 2
Fore
SplineSet
160 215 m 1
 390 215 l 2
 460 215 510 280 510 360 c 0
 510 440 460 505 390 505 c 2
 160 505 l 1
 160 215 l 1
80 0 m 1
 80 720 l 5
 160 720 l 1
 160 575 l 1
 390 575 l 2
 490 575 590 510 590 360 c 0
 590 210 490 145 390 145 c 2
 160 145 l 1
 160 0 l 1
 80 0 l 1
EndSplineSet
Validated: 1
EndChar

StartChar: cedilla
Encoding: 184 184 268
Width: 280
Flags: W
HStem: -215 60<40 100> -60 60<100 143.478>
VStem: 160 80<-137.321 -78.2777>
LayerCount: 2
Fore
SplineSet
40 -155 m 1
 120 -148 160 -140 160 -110 c 0
 160 -80 120 -64 70 -60 c 1
 100 0 l 1
 180 0 l 1
 160 -30 l 1
 190 -35 240 -60 240 -110 c 0
 240 -180 179 -203 40 -215 c 1
 40 -155 l 1
EndSplineSet
Validated: 1
EndChar

StartChar: Ccedilla
Encoding: 199 199 269
Width: 720
VWidth: 0
HStem: -228 60<275 335> 668 72<273.015 478.442>
VStem: 40 84<225.778 494.42> 395 80<-150.321 -91.2777> 596 84<175.215 240 480 564>
LayerCount: 2
Fore
SplineSet
40 360 m 0
 40 600 185 740 375 740 c 0
 545 740 652 638 680 480 c 1
 596 480 l 1
 575 598 495 668 375 668 c 0
 225 668 124 550 124 360 c 0
 124 170 225 52 375 52 c 0
 495 52 575 122 596 240 c 1
 680 240 l 1
 654 94 560 -4 411 -18 c 1
 395 -43 l 1
 425 -48 475 -73 475 -123 c 0
 475 -193 414 -216 275 -228 c 1
 275 -168 l 1
 355 -161 395 -153 395 -123 c 0
 395 -93 355 -77 305 -73 c 1
 333 -18 l 1
 164 1 40 138 40 360 c 0
EndSplineSet
Validated: 1
EndChar

StartChar: ccedilla
Encoding: 231 231 270
Width: 570
VWidth: 0
HStem: -228 60<190 250> 470 70<209.881 378.79>
VStem: 40 80<149.182 369.871> 310 80<-150.321 -91.2777> 450 80<117.373 170 350 430>
LayerCount: 2
Fore
SplineSet
40 260 m 0
 40 430 150 540 290 540 c 0
 430 540 511 458 530 350 c 1
 450 350 l 1
 440 409 390 470 290 470 c 0
 200 470 120 400 120 260 c 0
 120 120 200 50 290 50 c 0
 390 50 440 111 450 170 c 1
 530 170 l 1
 513 72 445 -5 327 -18 c 1
 310 -43 l 1
 340 -48 390 -73 390 -123 c 0
 390 -193 329 -216 190 -228 c 1
 190 -168 l 1
 270 -161 310 -153 310 -123 c 0
 310 -93 270 -77 220 -73 c 1
 248 -17 l 1
 129 3 40 107 40 260 c 0
EndSplineSet
Validated: 1
EndChar

StartChar: Scedilla
Encoding: 350 350 271
Width: 640
VWidth: 0
HStem: -228 60<220 280> 520 21G<496 580> 668 72<219.32 420.68>
VStem: 40 84<125.705 200> 60 84<464.343 595.506> 340 80<-150.321 -91.2777> 496 84<520 595.042> 516 84<125.443 255.165>
LayerCount: 2
Fore
SplineSet
220 -168 m 1xed
 300 -161 340 -153 340 -123 c 0
 340 -93 300 -77 250 -73 c 1
 277 -18 l 1
 116 -4 40 89 40 200 c 1
 124 200 l 1
 124 120 180 52 320 52 c 0
 460 52 516 120 516 200 c 0xf5
 516 260 458 305 320 329 c 0
 153 358 60 400 60 520 c 0
 60 640 150 740 320 740 c 0
 490 740 580 640 580 520 c 1
 496 520 l 1xee
 496 600 440 668 320 668 c 0
 200 668 144 600 144 520 c 0
 144 465 192 423 320 401 c 0
 507 368 600 315 600 200 c 0
 600 69 521 -9 356 -19 c 1
 340 -43 l 1
 370 -48 420 -73 420 -123 c 0
 420 -193 359 -216 220 -228 c 1
 220 -168 l 1xed
EndSplineSet
Validated: 1
EndChar

StartChar: scedilla
Encoding: 351 351 272
Width: 510
VWidth: 0
HStem: -228 60<155 215> 470 70<173.672 336.328>
VStem: 40 80<87.772 140> 60 80<334.563 436.295> 275 80<-150.321 -91.2777> 370 80<380 435.22> 390 80<88.3936 183.237>
LayerCount: 2
Fore
SplineSet
155 -168 m 1xda
 235 -161 275 -153 275 -123 c 0
 275 -93 235 -77 185 -73 c 1
 213 -18 l 1
 100 -5 40 60 40 140 c 1
 120 140 l 1
 120 90 165 50 255 50 c 0
 345 50 390 90 390 140 c 0xea
 390 170 363 210 255 230 c 0
 107 257 60 300 60 380 c 0
 60 460 125 540 255 540 c 0
 385 540 450 460 450 380 c 1
 370 380 l 1xdc
 370 430 335 470 255 470 c 0
 175 470 140 430 140 380 c 0
 140 340 166 316 255 300 c 0
 413 272 470 230 470 140 c 0
 470 58 408 -7 291 -18 c 1
 275 -43 l 1
 305 -48 355 -73 355 -123 c 0
 355 -193 294 -216 155 -228 c 1
 155 -168 l 1xda
EndSplineSet
Validated: 1
EndChar

StartChar: Tcommaaccent
Encoding: 354 354 273
Width: 600
VWidth: 0
HStem: -208 60<200 260> 648 72<20 258 342 580>
VStem: 258 84<3 648> 320 80<-130.321 -71.2777>
LayerCount: 2
Fore
SplineSet
200 -148 m 1xd0
 280 -141 320 -133 320 -103 c 0xd0
 320 -73 280 -57 230 -53 c 1
 258 3 l 1
 258 648 l 1
 20 648 l 1
 20 720 l 1
 580 720 l 1
 580 648 l 1
 342 648 l 1
 342 0 l 1xe0
 335 -0 l 1
 320 -23 l 1
 350 -28 400 -53 400 -103 c 0
 400 -173 339 -196 200 -208 c 1
 200 -148 l 1xd0
EndSplineSet
Validated: 1
EndChar

StartChar: tcommaaccent
Encoding: 355 355 274
Width: 290
VWidth: 0
HStem: -228 60<100 160> 450 70<20 90 170 260>
VStem: 90 80<59.7012 450 520 670> 220 80<-150.321 -91.2777>
LayerCount: 2
Fore
SplineSet
100 -168 m 1
 180 -161 220 -153 220 -123 c 0
 220 -93 180 -77 130 -73 c 1
 159 -14 l 1
 109 2 90 53 90 150 c 2
 90 450 l 1
 20 450 l 1
 20 520 l 1
 90 520 l 1
 90 670 l 1
 170 670 l 1
 170 520 l 1
 260 520 l 1
 260 450 l 1
 170 450 l 1
 170 150 l 2
 170 80 180 50 220 50 c 0
 240 50 250 52 270 55 c 1
 270 -10 l 1
 259 -14 250 -17 236 -19 c 1
 220 -43 l 1
 250 -48 300 -73 300 -123 c 0
 300 -193 239 -216 100 -228 c 1
 100 -168 l 1
EndSplineSet
Validated: 1
EndChar

StartChar: five
Encoding: 53 53 277
Width: 580
VWidth: 0
Flags: W
HStem: -20 72<188.21 365.134> 408 72<205.782 362.007> 650 70<201 480>
VStem: 50 84<66 150> 441 84<127.657 327.324>
DStem2: 55 310 164 420 0.156581 0.987665<125.71 358.667>
LayerCount: 2
Fore
SplineSet
50 150 m 1
 134 150 l 5
 144 91 200 52 270 52 c 0
 380 52 441 110 441 230 c 0
 441 350 370 408 270 408 c 0
 210 408 163 376 139 310 c 1
 55 310 l 1
 120 720 l 1
 480 720 l 1
 480 650 l 1
 201 650 l 1
 164 420 l 1
 193 461 240 480 290 480 c 0
 400 480 525 410 525 230 c 0
 525 50 400 -20 270 -20 c 0
 170 -20 71 32 50 150 c 1
EndSplineSet
Validated: 1
EndChar

StartChar: asciitilde
Encoding: 126 126 278
Width: 580
VWidth: 0
Flags: W
HStem: 220 60<374.332 452.086> 380 60<133.955 215.668>
VStem: 40 70<240 355.075> 470 70<296.237 420>
DStem2: 260 405 260 320 0.732793 -0.680451<-48.2404 201.604>
LayerCount: 2
Fore
SplineSet
40 240 m 1
 40 380 90 440 170 440 c 0
 200 440 231 432 260 405 c 2
 330 340 l 2
 374 299 400 280 420 280 c 0
 450 280 470 310 470 420 c 1
 540 420 l 1
 540 300 500 220 420 220 c 0
 390 220 359 228 330 255 c 2
 260 320 l 2
 216 361 190 380 170 380 c 0
 140 380 110 350 110 240 c 1
 40 240 l 1
EndSplineSet
Validated: 1
EndChar

StartChar: tilde
Encoding: 732 732 279
Width: 350
VWidth: 0
Flags: W
HStem: 585 50<197.451 249.235> 670 50<100.765 153.567>
VStem: 40 50<585 662.871> 260 50<642.129 720>
LayerCount: 2
Fore
SplineSet
40 585 m 1
 40 665 70 720 130 720 c 0
 160 720 178 708 188 680 c 0
 198 652 205 635 220 635 c 0
 240 635 260 650 260 720 c 1
 310 720 l 1
 310 640 280 585 220 585 c 0
 190 585 173 597 163 625 c 0
 153 653 145 670 130 670 c 0
 110 670 90 655 90 585 c 1
 40 585 l 1
EndSplineSet
Validated: 1
EndChar

StartChar: hungarumlaut
Encoding: 733 733 289
Width: 380
VWidth: 0
Flags: W
HStem: 600 150
LayerCount: 2
Fore
SplineSet
170 600 m 1
 250 750 l 1
 360 750 l 1
 230 600 l 1
 170 600 l 1
20 600 m 1
 100 750 l 1
 210 750 l 1
 80 600 l 1
 20 600 l 1
EndSplineSet
Validated: 1
EndChar

StartChar: candrabinducmb
Encoding: 784 784 290
Width: 0
VWidth: 0
Flags: W
HStem: 570 60<-211.665 -128.12> 700 90<-210 -130> 700 20G<-300 -229 -110 -40>
VStem: -300 71<648.561 720> -210 80<700 790> -110 70<648.561 720>
LayerCount: 2
Fore
SplineSet
-210 700 m 1xdc
 -210 790 l 1
 -130 790 l 1
 -130 700 l 1
 -210 700 l 1xdc
-300 720 m 1xbc
 -229 720 l 1
 -229 670 -210 630 -170 630 c 0
 -130 630 -110 670 -110 720 c 1
 -40 720 l 1
 -40 630 -90 570 -170 570 c 0
 -250 570 -300 630 -300 720 c 1xbc
EndSplineSet
Validated: 1
EndChar

StartChar: dblgravecmb
Encoding: 783 783 299
Width: 380
VWidth: 0
Flags: W
HStem: 600 150
LayerCount: 2
Fore
SplineSet
170 750 m 1
 280 750 l 1
 360 600 l 1
 300 600 l 1
 170 750 l 1
20 750 m 1
 130 750 l 1
 210 600 l 1
 150 600 l 1
 20 750 l 1
EndSplineSet
Validated: 1
EndChar

StartChar: plus
Encoding: 43 43 300
Width: 540
VWidth: 0
Flags: W
HStem: 280 70<20 230 310 520>
VStem: 230 80<70 280 350 560>
LayerCount: 2
Fore
SplineSet
20 280 m 1
 20 350 l 5
 230 350 l 1
 230 560 l 1
 310 560 l 1
 310 350 l 1
 520 350 l 1
 520 280 l 1
 310 280 l 1
 310 70 l 1
 230 70 l 1
 230 280 l 1
 20 280 l 1
EndSplineSet
Validated: 1
EndChar

StartChar: at
Encoding: 64 64 301
Width: 940
VWidth: 0
Flags: W
HStem: -180 80<349.513 615.998> -10 70<690 739.219> 50 70<399.034 540.436> 460 70<399.034 534.577> 670 70<346.312 604.672>
VStem: 40 80<149.444 424.539> 250 80<195.236 384.764> 610 80<60 140 195.668 384.332 430 510> 820 80<168.799 436.364>
LayerCount: 2
Fore
SplineSet
330 290 m 0xbf80
 330 190 390 120 470 120 c 0
 550 120 610 190 610 290 c 0
 610 390 550 460 470 460 c 0
 390 460 330 390 330 290 c 0xbf80
40 290 m 0
 40 540 221 740 471 740 c 0
 721 740 900 580 900 290 c 0
 900 130 830 -10 690 -10 c 2
 610 -10 l 1xdf80
 610 140 l 1
 593 93 530 50 450 50 c 0xbf80
 350 50 250 140 250 290 c 0
 250 440 350 530 450 530 c 0
 530 530 593 477 610 430 c 1
 610 510 l 1
 690 510 l 1
 690 60 l 1xdf80
 770 60 820 190 820 290 c 0
 820 510 701 670 471 670 c 0
 261 670 120 510 120 290 c 0
 120 70 254 -100 470 -100 c 0
 530 -100 624 -81 670 -60 c 1
 670 -140 l 1
 608 -169 561 -180 450 -180 c 0
 200 -180 40 40 40 290 c 0
EndSplineSet
Validated: 1
EndChar

StartChar: braceleft
Encoding: 123 123 302
Width: 310
VWidth: 900
Flags: W
HStem: -120 70<213.554 290> 650 70<210.419 290>
VStem: 20 80<260 340> 120 70<-28.0289 179.824 422.867 630.761>
LayerCount: 2
Fore
SplineSet
20 260 m 1
 20 340 l 1
 114 374 120 500 120 590 c 0
 120 660 150 720 220 720 c 2
 290 720 l 1
 290 650 l 1
 250 650 l 2
 200 650 190 590 190 520 c 0
 190 450 175 328 100 300 c 1
 175 272 190 160 190 90 c 0
 190 20 200 -50 250 -50 c 2
 290 -50 l 1
 290 -120 l 1
 220 -120 l 2
 150 -120 120 -50 120 20 c 0
 120 110 114 225 20 260 c 1
EndSplineSet
Validated: 1
EndChar

StartChar: braceright
Encoding: 125 125 303
Width: 310
VWidth: 900
Flags: W
HStem: -120 70<20 96.4456> 650 70<20 99.5811>
VStem: 120 70<-28.0289 179.824 422.867 630.761> 210 80<260 340>
LayerCount: 2
Fore
SplineSet
20 -50 m 1
 60 -50 l 2
 110 -50 120 20 120 90 c 0
 120 160 135 272 210 300 c 1
 135 328 120 450 120 520 c 0
 120 590 110 650 60 650 c 2
 20 650 l 1
 20 720 l 1
 90 720 l 2
 160 720 190 660 190 590 c 0
 190 500 196 374 290 340 c 1
 290 260 l 1
 196 225 190 110 190 20 c 0
 190 -50 160 -120 90 -120 c 2
 20 -120 l 1
 20 -50 l 1
EndSplineSet
Validated: 1
EndChar

StartChar: less
Encoding: 60 60 304
Width: 600
VWidth: 0
Flags: W
VStem: 40 80<235 385>
DStem2: 40 345 120 310 0.927242 0.374463<61.0731 536.463> 120 310 40 275 0.927242 -0.374463<0 475.39>
LayerCount: 2
Fore
SplineSet
40 275 m 1
 40 345 l 1
 560 555 l 1
 560 490 l 1
 120 310 l 5
 560 130 l 1
 560 65 l 1
 40 275 l 1
EndSplineSet
Validated: 1
EndChar

StartChar: greater
Encoding: 62 62 305
Width: 600
VWidth: -50
Flags: W
VStem: 480 80<235 385>
DStem2: 40 555 40 490 0.927242 -0.374463<24.3401 499.73> 40 130 40 65 0.927242 0.374463<0 475.39>
LayerCount: 2
Fore
SplineSet
40 65 m 1
 40 130 l 1
 480 310 l 1
 40 490 l 1
 40 555 l 1
 560 345 l 1
 560 275 l 1
 40 65 l 1
EndSplineSet
Validated: 1
EndChar

StartChar: yen
Encoding: 165 165 306
Width: 640
VWidth: 0
Flags: W
HStem: 0 21G<280 360> 140 70<60 280 360 580> 290 70<60 280 360 580> 700 20G<20 134.286 505.714 620>
VStem: 20 100<620 720> 280 80<0 140 210 290> 520 100<620 720>
DStem2: 120 720 20 720 0.585491 -0.810679<0 344.088> 320 440 360 360 0.585491 0.810679<0 344.088>
CounterMasks: 1 0e
LayerCount: 2
Fore
SplineSet
20 720 m 1
 120 720 l 1
 320 440 l 1
 520 720 l 1
 620 720 l 1
 360 360 l 1
 580 360 l 1
 580 290 l 1
 360 290 l 1
 360 210 l 1
 580 210 l 1
 580 140 l 1
 360 140 l 1
 360 0 l 1
 280 0 l 1
 280 140 l 1
 60 140 l 1
 60 210 l 1
 280 210 l 1
 280 290 l 1
 60 290 l 1
 60 360 l 1
 280 360 l 1
 20 720 l 1
EndSplineSet
Validated: 1
EndChar

StartChar: asterisk
Encoding: 42 42 308
Width: 305
VWidth: 900
Flags: W
HStem: 485 255
VStem: 45 60<485 545> 130 50<640 740> 200 60<485 545>
DStem2: 30 675 30 625 0.943858 -0.33035<16.5175 105.948> 45 485 105 485 0.581238 0.813733<34.8743 115.085> 185 590 152 550 0.581238 -0.813733<13.3685 94.1606> 180 640 185 590 0.943858 0.33035<0 89.4306>
LayerCount: 2
Fore
SplineSet
30 625 m 1
 30 675 l 1
 130 640 l 1
 130 740 l 1
 180 740 l 1
 180 640 l 1
 280 675 l 1
 280 625 l 1
 185 590 l 1
 260 485 l 1
 200 485 l 1
 152 550 l 1
 105 485 l 1
 45 485 l 1
 120 590 l 1
 30 625 l 1
EndSplineSet
Validated: 1
EndChar

StartChar: degree
Encoding: 176 176 309
Width: 340
VWidth: 0
Flags: W
HStem: 420 60<126.957 213.043> 620 60<126.957 213.043>
VStem: 40 70<496.189 603.811> 230 70<496.189 603.811>
LayerCount: 2
Fore
SplineSet
110 550 m 0
 110 505 140 480 170 480 c 0
 200 480 230 505 230 550 c 0
 230 595 200 620 170 620 c 0
 140 620 110 595 110 550 c 0
40 550 m 0
 40 622 98 680 170 680 c 0
 242 680 300 622 300 550 c 0
 300 478 242 420 170 420 c 0
 98 420 40 478 40 550 c 0
EndSplineSet
Validated: 1
EndChar

StartChar: logicalnot
Encoding: 172 172 310
Width: 460
VWidth: 45
Flags: W
HStem: 280 70<20 360>
VStem: 360 80<145 280>
LayerCount: 2
Fore
SplineSet
20 280 m 1
 20 350 l 1
 440 350 l 1
 440 145 l 1
 360 145 l 1
 360 280 l 1
 20 280 l 1
EndSplineSet
Validated: 1
EndChar

StartChar: percent
Encoding: 37 37 311
Width: 690
VWidth: 0
Flags: W
HStem: 20 60<476.957 563.043> 220 60<476.957 563.043> 420 60<126.957 213.043> 620 60<126.957 213.043>
VStem: 40 70<496.189 603.811> 230 70<496.189 603.811> 390 70<96.1888 203.811> 580 70<96.1888 203.811>
DStem2: 120 85 170 55 0.581238 0.813733<4.64991 688.186>
LayerCount: 2
Fore
SplineSet
460 150 m 0
 460 105 490 80 520 80 c 0
 550 80 580 105 580 150 c 0
 580 195 550 220 520 220 c 0
 490 220 460 195 460 150 c 0
390 150 m 0
 390 222 448 280 520 280 c 0
 592 280 650 222 650 150 c 0
 650 78 592 20 520 20 c 0
 448 20 390 78 390 150 c 0
120 85 m 5
 520 645 l 5
 570 615 l 5
 170 55 l 5
 120 85 l 5
110 550 m 0
 110 505 140 480 170 480 c 0
 200 480 230 505 230 550 c 0
 230 595 200 620 170 620 c 0
 140 620 110 595 110 550 c 0
40 550 m 0
 40 622 98 680 170 680 c 0
 242 680 300 622 300 550 c 0
 300 478 242 420 170 420 c 0
 98 420 40 478 40 550 c 0
EndSplineSet
Validated: 1
EndChar

StartChar: divide
Encoding: 247 247 312
Width: 540
VWidth: 45
Flags: W
HStem: 70 90<230 310> 280 70<20 520> 470 90<230 310>
VStem: 230 80<70 160 470 560>
CounterMasks: 1 e0
LayerCount: 2
Fore
SplineSet
230 470 m 1
 230 560 l 1
 310 560 l 1
 310 470 l 1
 230 470 l 1
230 70 m 1
 230 160 l 1
 310 160 l 1
 310 70 l 1
 230 70 l 1
20 280 m 1
 20 350 l 1
 520 350 l 1
 520 280 l 1
 20 280 l 1
EndSplineSet
Validated: 1
EndChar

StartChar: kgreenlandic
Encoding: 312 312 313
Width: 500
VWidth: 0
Flags: W
HStem: 0 21G<80 160 348.1 480> 500 20G<80 160 347.895 480>
VStem: 80 80<0 200 330 520> 369 111<0 111 409 520>
DStem2: 160 330 200 270 0.745938 0.666016<0 283.19> 200 270 160 200 0.719844 -0.694136<19.7957 309.07>
LayerCount: 2
Fore
SplineSet
80 0 m 1
 80 520 l 1
 160 520 l 1
 160 330 l 1
 370 520 l 1
 480 520 l 1
 200 270 l 1
 480 0 l 1
 369 0 l 1
 160 200 l 1
 160 0 l 1
 80 0 l 1
EndSplineSet
Validated: 1
EndChar

StartChar: parenleft
Encoding: 40 40 314
Width: 320
VWidth: 0
Flags: W
HStem: 700 20G<184 280>
VStem: 80 80<128.043 471.957>
LayerCount: 2
Fore
SplineSet
80 300 m 0
 80 480 138 589 230 720 c 1
 280 720 l 1
 200 581 160 460 160 300 c 0
 160 140 200 19 280 -120 c 1
 230 -120 l 1
 138 11 80 120 80 300 c 0
EndSplineSet
Validated: 1
EndChar

StartChar: parenright
Encoding: 41 41 315
Width: 320
VWidth: 0
Flags: W
HStem: 700 20G<40 136>
VStem: 160 80<128.043 471.957>
LayerCount: 2
Fore
SplineSet
40 -120 m 1
 120 19 160 140 160 300 c 0
 160 460 120 581 40 720 c 1
 90 720 l 1
 182 589 240 480 240 300 c 0
 240 120 182 11 90 -120 c 1
 40 -120 l 1
EndSplineSet
Validated: 1
EndChar

StartChar: fraction
Encoding: 8260 8260 316
Width: 490
VWidth: 0
Flags: W
DStem2: 20 85 70 55 0.581238 0.813733<4.64991 688.186>
LayerCount: 2
Fore
SplineSet
20 85 m 1
 420 645 l 1
 470 615 l 1
 70 55 l 1
 20 85 l 1
EndSplineSet
Validated: 1
EndChar

StartChar: Euro
Encoding: 8364 8364 317
Width: 780
VWidth: 0
Flags: W
HStem: -20 70<334.539 536.74> 250 70<20 101 193 440> 400 70<20 101 193 440> 670 70<334.539 536.74>
VStem: 100 80<320 400> 660 80<160 240 480 560>
LayerCount: 2
Fore
SplineSet
20 250 m 5
 20 320 l 5
 101 320 l 1
 100 333 100 346 100 360 c 0
 100 374 100 387 101 400 c 1
 20 400 l 5
 20 470 l 5
 111 470 l 1
 149 642 276 740 435 740 c 0
 605 740 712 638 740 480 c 1
 660 480 l 1
 639 598 555 670 435 670 c 0
 317 670 226 595 193 470 c 1
 440 470 l 5
 440 400 l 5
 182 400 l 1
 181 387 180 374 180 360 c 0
 180 346 181 333 182 320 c 1
 440 320 l 5
 440 250 l 5
 193 250 l 1
 226 125 317 50 435 50 c 0
 555 50 639 122 660 240 c 1
 740 240 l 1
 712 82 605 -20 435 -20 c 0
 276 -20 149 78 111 250 c 1
 20 250 l 5
EndSplineSet
Validated: 1
EndChar

StartChar: quoteright
Encoding: 8217 8217 318
Width: 240
Flags: W
HStem: 530 21G<80 133> 630 90<80 120>
VStem: 80 80<630 720> 80 40<530 570> 120 40<558.873 630>
LayerCount: 2
Fore
SplineSet
80 530 m 1xd0
 106 561 120 590 120 630 c 1xc8
 80 630 l 1
 80 720 l 1
 160 720 l 1
 160 630 l 2xe0
 160 590 146 561 120 530 c 1
 80 530 l 1xd0
EndSplineSet
Validated: 1
EndChar

StartChar: quoteleft
Encoding: 8216 8216 319
Width: 240
Flags: W
HStem: 530 90<120 160> 700 20G<107 160>
VStem: 80 80<530 620> 80 40<620 691.127> 120 40<680 720>
LayerCount: 2
Fore
SplineSet
80 530 m 1xe0
 80 620 l 2xe0
 80 660 94 689 120 720 c 1
 160 720 l 1xc8
 134 689 120 660 120 620 c 1xd0
 160 620 l 1
 160 530 l 1
 80 530 l 1xe0
EndSplineSet
Validated: 1
EndChar

StartChar: Delta
Encoding: 8710 8710 322
Width: 640
VWidth: 0
Flags: W
HStem: 0 70<124 516> 650 70<270 370>
DStem2: 20 0 124 70 0.328012 0.944674<100.24 712.441> 370 720 320 650 0.328012 -0.944674<49.7266 661.928>
LayerCount: 2
Fore
SplineSet
516 70 m 1
 320 650 l 1
 124 70 l 1
 516 70 l 1
620 0 m 1
 20 0 l 1
 270 720 l 1
 370 720 l 1
 620 0 l 1
EndSplineSet
Validated: 1
EndChar

StartChar: uni2010
Encoding: 8208 8208 323
Width: 300
VWidth: 0
Flags: W
HStem: 280 70<40 260>
VStem: 40 220<280 350>
LayerCount: 2
Fore
SplineSet
40 280 m 1
 40 350 l 1
 260 350 l 1
 260 280 l 1
 40 280 l 1
EndSplineSet
Validated: 1
EndChar

StartChar: figuredash
Encoding: 8210 8210 324
Width: 580
VWidth: 0
Flags: W
HStem: 280 70<40 540>
LayerCount: 2
Fore
SplineSet
40 280 m 1
 40 350 l 1
 540 350 l 1
 540 280 l 1
 40 280 l 1
EndSplineSet
Validated: 1
EndChar

StartChar: afii00208
Encoding: 8213 8213 325
Width: 2000
VWidth: 0
Flags: W
HStem: 280 70<40 1960>
LayerCount: 2
Fore
SplineSet
40 280 m 1
 40 350 l 1
 1960 350 l 1
 1960 280 l 1
 40 280 l 1
EndSplineSet
Validated: 1
EndChar

StartChar: mu
Encoding: 181 181 327
Width: 580
VWidth: 0
Flags: W
HStem: -200 21G<80 160> -20 70<215.963 364.037> 0 21G<420 500> 500 20G<80 160 420 500>
VStem: 80 80<-200 44 105.527 520> 420 80<0 44 105.527 520>
LayerCount: 2
Fore
SplineSet
80 -200 m 1xdc
 80 520 l 1
 160 520 l 1
 160 180 l 2
 160 110 210 50 290 50 c 0xdc
 370 50 420 110 420 180 c 2
 420 520 l 1
 500 520 l 1
 500 0 l 1
 420 0 l 1xbc
 420 44 l 1
 395 0 340 -20 290 -20 c 0
 240 -20 185 1 160 44 c 1
 160 -200 l 1
 80 -200 l 1xdc
EndSplineSet
Validated: 1
EndChar

StartChar: ampersand
Encoding: 38 38 329
Width: 680
VWidth: 0
Flags: W
HStem: -20 70<182.659 399.442> 0 21G<542.5 660> 670 70<238.401 382.587>
VStem: 40 82<103.932 254.359> 122 80<495.674 631.587> 420 80<500.368 633.118> 540 80<210.32 370>
DStem2: 338 373 265 342 0.653461 -0.75696<0 257.389 353.005 427.414>
LayerCount: 2
Fore
SplineSet
280 -20 m 0xae
 150 -20 40 40 40 170 c 0xb6
 40 260 86 333 199 398 c 1
 161 430 122 495 122 565 c 0
 122 665 195 740 315 740 c 0
 435 740 500 645 500 565 c 0
 500 485 473 438 338 373 c 1
 506 178 l 1
 528 226 540 290 540 370 c 1
 620 370 l 1
 620 263 600 178 561 115 c 1
 660 0 l 1
 560 0 l 1x6e
 511 56 l 1
 455 5 377 -20 280 -20 c 0xae
290 430 m 1
 375 461 420 505 420 565 c 0
 420 625 385 670 310 670 c 0
 238 670 202 625 202 565 c 0x2e
 202 525 229 465 290 430 c 1
462 114 m 1
 265 342 l 1
 162 304 122 250 122 170 c 0
 122 100 180 50 280 50 c 0xb6
 355 50 417 69 462 114 c 1
EndSplineSet
Validated: 1
EndChar

StartChar: sterling
Encoding: 163 163 330
Width: 560
VWidth: 937
Flags: W
HStem: 0 70<130 520> 320 70<20 80 160 380> 520 21G<440 520> 670 70<223.351 381.884>
VStem: 80 80<90.5395 320 390 602.289> 440 80<520 611.063>
LayerCount: 2
Fore
SplineSet
20 320 m 1
 20 390 l 1
 80 390 l 1
 80 510 l 2
 80 670 191 740 300 740 c 0
 409 740 520 680 520 520 c 1
 440 520 l 1
 440 620 389 670 300 670 c 0
 211 670 160 610 160 510 c 2
 160 390 l 1
 380 390 l 1
 380 320 l 1
 160 320 l 1
 160 180 l 2
 160 120 153 89 130 70 c 1
 520 70 l 1
 520 0 l 1
 40 0 l 1
 40 70 l 1
 63 89 80 120 80 180 c 2
 80 320 l 1
 20 320 l 1
EndSplineSet
Validated: 1
EndChar

StartChar: eng
Encoding: 331 331 331
Width: 570
VWidth: 0
Flags: W
HStem: -220 70<320.908 408.463> 0 21G<80 160> 470 70<229.514 362.691> 500 20G<80 160>
VStem: 80 80<0 414.473 456 520> 420 80<-138.89 413.745>
LayerCount: 2
Fore
SplineSet
80 0 m 1xec
 80 520 l 1
 160 520 l 1xdc
 160 456 l 1
 190 508 250 540 330 540 c 0
 430 540 500 460 500 360 c 2
 500 -50 l 2
 500 -170 470 -220 390 -220 c 0
 350 -220 339 -217 320 -210 c 1
 320 -145 l 1
 340 -148 351 -150 371 -150 c 0
 411 -150 420 -120 420 -50 c 2
 420 340 l 2
 420 410 370 470 290 470 c 0
 210 470 160 410 160 340 c 2
 160 0 l 1
 80 0 l 1xec
EndSplineSet
Validated: 1
EndChar

StartChar: Eng
Encoding: 330 330 332
Width: 750
VWidth: 0
Flags: W
HStem: -220 70<470.912 558.731> 0 21G<80 164> 700 20G<80 193.533 586 670>
VStem: 80 84<0 600> 570 100<-140.387 0> 586 84<120 720>
DStem2: 180 720 164 600 0.560421 -0.828208<90.4182 724.456>
LayerCount: 2
Fore
SplineSet
80 0 m 1xf8
 80 720 l 1
 180 720 l 1
 586 120 l 1
 586 720 l 1
 670 720 l 1xf4
 670 -50 l 2
 670 -165 631 -220 551 -220 c 0
 511 -220 489 -217 470 -210 c 1
 470 -145 l 1
 490 -148 501 -150 521 -150 c 0
 561 -150 570 -120 570 -50 c 2
 570 0 l 1
 164 600 l 1
 164 0 l 1
 80 0 l 1xf8
EndSplineSet
Validated: 1
EndChar

StartChar: germandbls
Encoding: 223 223 333
Width: 590
VWidth: 0
Flags: W
HStem: -20 70<261.315 420.991> 0 70<260 330> 355 70<300 385.084> 670 70<214.524 386.279>
VStem: 80 80<0 617.656> 444 80<481.382 617.196> 470 80<104.134 281.328>
LayerCount: 2
Fore
SplineSet
350 50 m 0xba
 440 50 470 120 470 200 c 0xba
 470 280 420 355 300 355 c 1
 300 425 l 1
 400 425 444 490 444 550 c 0
 444 610 400 670 300 670 c 0
 200 670 160 610 160 550 c 2
 160 0 l 1
 80 0 l 1
 80 550 l 2
 80 640 140 740 300 740 c 0
 460 740 524 640 524 550 c 0x7c
 524 475 486 425 424 392 c 1
 501 356 550 300 550 200 c 0
 550 80 480 -20 350 -20 c 0xba
 320 -20 288 -10 260 0 c 1
 260 70 l 1x7a
 288 60 320 50 350 50 c 0xba
EndSplineSet
Validated: 1
EndChar

StartChar: guilsinglleft
Encoding: 8249 8249 334
Width: 300
VWidth: 0
Flags: W
VStem: 40 60<260 360> 180 80<140 220 400 480>
DStem2: 40 330 100 310 0.685365 0.7282<26.5579 205.181> 100 310 40 290 0.685365 -0.7282<0 178.623>
LayerCount: 2
Fore
SplineSet
40 290 m 1
 40 330 l 1
 180 480 l 1
 260 480 l 1
 100 310 l 1
 260 140 l 1
 180 140 l 1
 40 290 l 1
EndSplineSet
Validated: 1
EndChar

StartChar: guilsinglright
Encoding: 8250 8250 335
Width: 300
VWidth: 40
Flags: W
VStem: 40 80<140 220 400 480> 200 60<260 360>
DStem2: 120 480 40 480 0.685365 -0.7282<0 178.623> 40 140 120 140 0.685365 0.7282<54.8292 233.452>
LayerCount: 2
Fore
SplineSet
260 290 m 1
 120 140 l 1
 40 140 l 1
 200 310 l 1
 40 480 l 1
 120 480 l 1
 260 330 l 1
 260 290 l 1
EndSplineSet
Validated: 1
EndChar

StartChar: perthousand
Encoding: 8240 8240 338
Width: 990
VWidth: 0
Flags: W
HStem: 20 60<476.957 563.043 776.957 863.043> 220 60<476.957 563.043 776.957 863.043> 420 60<126.957 213.043> 620 60<126.957 213.043>
VStem: 40 70<496.189 603.811> 230 70<496.189 603.811> 390 70<96.1888 203.811> 580 70<96.1888 203.811> 690 70<96.1888 203.811> 880 70<96.1888 203.811>
DStem2: 120 85 170 55 0.581238 0.813733<4.64991 688.186>
LayerCount: 2
Fore
SplineSet
760 150 m 0
 760 105 790 80 820 80 c 0
 850 80 880 105 880 150 c 0
 880 195 850 220 820 220 c 0
 790 220 760 195 760 150 c 0
690 150 m 0
 690 222 748 280 820 280 c 0
 892 280 950 222 950 150 c 0
 950 78 892 20 820 20 c 0
 748 20 690 78 690 150 c 0
460 150 m 0
 460 105 490 80 520 80 c 0
 550 80 580 105 580 150 c 0
 580 195 550 220 520 220 c 0
 490 220 460 195 460 150 c 0
390 150 m 0
 390 222 448 280 520 280 c 0
 592 280 650 222 650 150 c 0
 650 78 592 20 520 20 c 0
 448 20 390 78 390 150 c 0
120 85 m 1
 520 645 l 1
 570 615 l 1
 170 55 l 1
 120 85 l 1
110 550 m 0
 110 505 140 480 170 480 c 0
 200 480 230 505 230 550 c 0
 230 595 200 620 170 620 c 0
 140 620 110 595 110 550 c 0
40 550 m 0
 40 622 98 680 170 680 c 0
 242 680 300 622 300 550 c 0
 300 478 242 420 170 420 c 0
 98 420 40 478 40 550 c 0
EndSplineSet
Validated: 1
EndChar

StartChar: copyright
Encoding: 169 169 339
Width: 860
VWidth: 0
Flags: W
HStem: -20 60<312.972 547.028> 134 60<360.399 509.163> 526 60<360.399 509.163> 680 60<312.972 547.028>
VStem: 50 70<235.699 484.301> 227 70<261.861 458.139> 555 70<218 288 432 502> 740 70<235.699 484.301>
LayerCount: 2
Fore
SplineSet
120 360 m 0
 120 170 250 40 430 40 c 0
 610 40 740 170 740 360 c 0
 740 550 610 680 430 680 c 0
 250 680 120 550 120 360 c 0
50 360 m 0
 50 580 210 740 430 740 c 0
 650 740 810 580 810 360 c 0
 810 140 650 -20 430 -20 c 0
 210 -20 50 140 50 360 c 0
227 360 m 0
 227 496 310 586 430 586 c 0
 550 586 610 518 625 432 c 1
 555 432 l 1
 547 479 510 526 430 526 c 0
 358 526 297 472 297 360 c 0
 297 248 358 194 430 194 c 0
 510 194 547 241 555 288 c 1
 625 288 l 1
 610 202 550 134 430 134 c 0
 310 134 227 224 227 360 c 0
EndSplineSet
Validated: 1
EndChar

StartChar: f_f
Encoding: 64256 64256 340
Width: 600
VWidth: 0
Flags: W
HStem: 0 21G<90 170 360 440> 450 70<20 90 170 360 440 580> 665 65<241.399 310 511.399 580> 670 70<188.272 309.263 458.272 579.263>
VStem: 90 80<0 450 520 651.34> 360 80<0 450 520 651.34>
LayerCount: 2
Fore
SplineSet
20 450 m 1xdc
 20 520 l 1
 90 520 l 1
 90 570 l 2
 90 710 150 740 220 740 c 0xdc
 260 740 299 734 310 730 c 1
 310 665 l 1xec
 290 668 270 670 240 670 c 0
 190 670 170 640 170 570 c 2
 170 520 l 1
 360 520 l 1
 360 570 l 2
 360 710 420 740 490 740 c 0xdc
 530 740 569 734 580 730 c 1
 580 665 l 1xec
 560 668 540 670 510 670 c 0
 460 670 440 640 440 570 c 2
 440 520 l 1
 580 520 l 1
 580 450 l 1
 440 450 l 1
 440 0 l 1
 360 0 l 1
 360 450 l 1
 170 450 l 1
 170 0 l 1
 90 0 l 1
 90 450 l 1
 20 450 l 1xdc
EndSplineSet
Validated: 1
LCarets2: 1 0
Ligature2: "about f" f f
EndChar

StartChar: f_f_i
Encoding: 64259 64259 341
Width: 790
VWidth: 0
Flags: W
HStem: 0 21G<90 170 360 440 630 710> 450 70<20 90 170 360 440 530> 660 70<240 310> 670 70<188.508 309.104 468.911 609.355>
VStem: 90 80<0 450 520 651.34> 360 80<0 450 520 641.448> 630 80<0 520 620 648.125>
CounterMasks: 1 0e
LayerCount: 2
Fore
SplineSet
630 520 m 1xce
 710 520 l 1
 710 0 l 1
 630 0 l 1
 630 520 l 1xce
530 520 m 1
 530 450 l 1
 440 450 l 1
 440 0 l 1
 360 0 l 1
 360 450 l 1
 170 450 l 1
 170 0 l 1
 90 0 l 1
 90 450 l 1
 20 450 l 1
 20 520 l 1
 90 520 l 1
 90 570 l 2
 90 710 160 740 220 740 c 0xde
 260 740 291 737 310 730 c 1
 310 660 l 1xee
 291 667 270 670 240 670 c 0
 190 670 170 640 170 570 c 2
 170 520 l 1
 360 520 l 1
 360 570 l 2
 360 700 445 740 535 740 c 0
 625 740 710 700 710 620 c 1
 630 620 l 1
 630 640 595 670 535 670 c 0xde
 475 670 440 640 440 570 c 2
 440 520 l 1
 530 520 l 1
EndSplineSet
Validated: 1
LCarets2: 2 0 0
Ligature2: "about f" f f i
EndChar

StartChar: f_f_l
Encoding: 64260 64260 342
Width: 790
VWidth: 0
Flags: W
HStem: 0 21G<90 170 360 440 630 710> 450 70<20 90 170 360 440 530> 660 70<240 310> 670 70<188.508 309.104 468.911 609.355>
VStem: 90 80<0 450 520 651.34> 360 80<0 450 520 641.448> 630 80<0 648.125>
CounterMasks: 1 0e
LayerCount: 2
Fore
SplineSet
530 520 m 1xde
 530 450 l 1
 440 450 l 1
 440 0 l 1
 360 0 l 1
 360 450 l 1
 170 450 l 1
 170 0 l 1
 90 0 l 1
 90 450 l 1
 20 450 l 1
 20 520 l 1
 90 520 l 1
 90 570 l 2
 90 710 160 740 220 740 c 0xde
 260 740 291 737 310 730 c 1
 310 660 l 1xee
 291 667 270 670 240 670 c 0
 190 670 170 640 170 570 c 2
 170 520 l 1
 360 520 l 1
 360 570 l 2
 360 700 445 740 535 740 c 0
 625 740 710 700 710 620 c 2
 710 0 l 1
 630 0 l 1
 630 620 l 2
 630 640 595 670 535 670 c 0
 475 670 440 640 440 570 c 2
 440 520 l 1
 530 520 l 1xde
EndSplineSet
Validated: 1
Ligature2: "about f" f f l
EndChar

StartChar: longs_t
Encoding: 64261 64261 343
Width: 560
VWidth: 0
Flags: W
HStem: -20 70<451.811 539.092> 0 21G<90 170> 450 70<20 90 290 360 440 530> 670 70<198.911 339.355>
VStem: 90 80<0 450 520 641.448> 360 80<61.11 450 520 648.125>
LayerCount: 2
Fore
SplineSet
290 450 m 1xbc
 290 520 l 1
 360 520 l 1
 360 620 l 2
 360 640 325 670 265 670 c 0
 205 670 170 640 170 570 c 2
 170 0 l 1
 90 0 l 1x7c
 90 450 l 1
 20 450 l 1
 20 520 l 1
 90 520 l 1
 90 570 l 2
 90 700 175 740 265 740 c 0
 355 740 440 700 440 620 c 2
 440 520 l 1
 530 520 l 1
 530 450 l 1
 440 450 l 1
 440 150 l 2
 440 80 450 50 490 50 c 0
 510 50 520 52 540 55 c 1
 540 -10 l 1
 521 -17 510 -20 470 -20 c 0
 390 -20 360 30 360 150 c 2
 360 450 l 1
 290 450 l 1xbc
EndSplineSet
Validated: 1
EndChar

StartChar: s_t
Encoding: 64262 64262 344
Width: 800
VWidth: 0
Flags: W
HStem: -20 70<161.359 348.641 691.811 779.092> 450 70<530 600 680 770> 470 70<173.672 336.574> 670 70<472.376 577.624>
VStem: 40 80<88.0509 140> 60 80<334.563 436.295> 370 80<380 437.371 513 647.218> 390 80<87.9115 183.237> 600 80<61.11 450 520 647.218>
LayerCount: 2
Fore
SplineSet
370 570 m 2xb680
 370 700 435 740 525 740 c 0
 615 740 680 700 680 570 c 2
 680 520 l 1
 770 520 l 1
 770 450 l 1
 680 450 l 1
 680 150 l 2
 680 80 690 50 730 50 c 0
 750 50 760 52 780 55 c 1
 780 -10 l 1
 761 -17 750 -20 710 -20 c 0
 630 -20 600 30 600 150 c 2
 600 450 l 1
 530 450 l 1
 530 520 l 1
 600 520 l 1xd680
 600 570 l 2
 600 640 575 670 525 670 c 0
 475 670 450 640 450 570 c 2
 450 380 l 1
 370 380 l 1
 370 430 335 470 255 470 c 0
 175 470 140 430 140 380 c 0xb680
 140 340 166 316 255 300 c 0
 413 272 470 230 470 140 c 0
 470 50 395 -20 255 -20 c 0
 115 -20 40 50 40 140 c 1
 120 140 l 1
 120 90 165 50 255 50 c 0
 345 50 390 90 390 140 c 0xb980
 390 170 363 210 255 230 c 0
 107 257 60 300 60 380 c 0
 60 460 125 540 255 540 c 0
 302 540 340 530 370 513 c 1
 370 570 l 2xb680
EndSplineSet
Validated: 1
LCarets2: 1 0
Ligature2: "+x4THWMCsxqkA +1WnHTMeQ" s t
EndChar

StartChar: Tbar
Encoding: 358 358 345
Width: 600
VWidth: 0
Flags: W
HStem: 0 21G<258 342> 389 82<80 258 342 520> 648 72<20 258 342 580>
VStem: 258 84<0 389 471 648>
LayerCount: 2
Fore
SplineSet
20 648 m 1
 20 720 l 1
 580 720 l 1
 580 648 l 1
 342 648 l 1
 342 471 l 1
 520 471 l 5
 520 389 l 5
 342 389 l 1
 342 0 l 1
 258 0 l 1
 258 389 l 1
 80 389 l 5
 80 471 l 5
 258 471 l 1
 258 648 l 1
 20 648 l 1
EndSplineSet
Validated: 1
EndChar

StartChar: tbar
Encoding: 359 359 346
Width: 290
VWidth: 0
Flags: W
HStem: -5 70<181.811 269.092> 270 70<30 90 170 250> 450 70<20 90 170 260>
VStem: 90 80<76.11 270 340 450 520 670>
LayerCount: 2
Fore
SplineSet
20 450 m 1
 20 520 l 1
 90 520 l 1
 90 670 l 1
 170 670 l 1
 170 520 l 1
 260 520 l 1
 260 450 l 1
 170 450 l 1
 170 340 l 1
 250 340 l 5
 250 270 l 5
 170 270 l 1
 170 165 l 2
 170 95 180 65 220 65 c 0
 240 65 250 67 270 70 c 1
 270 5 l 1
 251 -2 240 -5 200 -5 c 0
 120 -5 90 45 90 165 c 2
 90 270 l 1
 30 270 l 5
 30 340 l 5
 90 340 l 1
 90 450 l 1
 20 450 l 1
EndSplineSet
Validated: 1
EndChar

StartChar: uni203D
Encoding: 8253 8253 347
Width: 520
Flags: W
HStem: 0 90<220 300> 520 21G<40 120> 720 20G<200 320>
VStem: 40 80<520 608.292> 210 100<377 663> 220 80<0 90 170 283.522> 400 80<453.94 608.863>
LayerCount: 2
Fore
SplineSet
305 377 m 1xfa
 353 416 400 465 400 520 c 0
 400 592 368 645 310 663 c 1
 310 450 l 1
 305 377 l 1xfa
300 0 m 1xf6
 220 0 l 1
 220 90 l 1
 300 90 l 1
 300 0 l 1xf6
40 520 m 1
 40 660 140 740 260 740 c 0
 380 740 480 660 480 520 c 0
 480 460 446 409 400 370 c 0
 339 319 300 270 300 210 c 2
 300 170 l 1
 220 170 l 1
 220 230 l 2xf6
 220 239 222 248 224 258 c 1
 210 450 l 1
 210 663 l 1xfa
 152 645 120 592 120 520 c 1
 40 520 l 1
EndSplineSet
Validated: 1
EndChar

StartChar: uni203E
Encoding: 8254 8254 348
Width: 500
VWidth: 0
Flags: W
HStem: 730 70<-20 520>
LayerCount: 2
Fore
SplineSet
-20 800 m 5
 520 800 l 1
 520 730 l 1
 -20 730 l 1
 -20 800 l 5
EndSplineSet
Validated: 1
EndChar

StartChar: one.superior
Encoding: 185 185 352
Width: 399
VWidth: 0
VStem: 216 63<320 721>
DStem2: 80 713 80 652 0.892342 0.451359<0 124.969>
LayerCount: 2
Fore
SplineSet
80 652 m 1
 80 713 l 1
 252 800 l 1
 279 800 l 1
 279 320 l 1
 216 320 l 1
 216 721 l 1
 80 652 l 1
EndSplineSet
Validated: 1
EndChar

StartChar: two.superior
Encoding: 178 178 353
Width: 405
VWidth: 0
HStem: 317 54<147 379> 756 54<127.684 263.586>
VStem: 27 63<649 717.441> 303 63<569.338 717.075>
DStem2: 42 368 147 371 0.796905 0.604105<85.4873 322.309>
LayerCount: 2
Fore
SplineSet
27 649 m 1
 27 743 90 810 196 810 c 0
 302 810 366 735 366 646 c 0
 366 557 325 508 231 434 c 2
 147 371 l 1
 379 371 l 1
 379 317 l 1
 42 317 l 1
 42 368 l 1
 228 509 l 2
 277 546 303 600 303 646 c 0
 303 711 264 756 196 756 c 0
 128 756 90 713 90 649 c 1
 27 649 l 1
EndSplineSet
Validated: 1
EndChar

StartChar: three.superior
Encoding: 179 179 354
Width: 420
VWidth: -148
HStem: 304 54<123.792 296.531> 535 55<165 278.641> 756 54<142.629 280.199>
VStem: 27 63<390.484 443> 50 63<671 725.295> 309 63<619.588 728.653> 331 63<390.473 501.724>
LayerCount: 2
Fore
SplineSet
27 443 m 1xf2
 90 443 l 1
 90 394 130 358 210 358 c 0
 290 358 331 395 331 445 c 0xf2
 331 501 297 535 165 535 c 1
 165 590 l 1
 282 590 309 624 309 675 c 0
 309 719 276 756 211 756 c 4
 146 756 113 717 113 671 c 1
 50 671 l 1
 50 741 109 810 211 810 c 4
 313 810 372 743 372 676 c 0xec
 372 629 346 586 299 564 c 1
 357 540 394 509 394 443 c 0
 394 370 327 304 210 304 c 0
 93 304 27 370 27 443 c 1xf2
EndSplineSet
Validated: 1
EndChar

StartChar: quotesinglbase
Encoding: 8218 8218 355
Width: 240
Flags: W
HStem: 0 90<80 120>
VStem: 80 80<0 90> 80 40<-100 -60> 120 40<-71.1267 0>
LayerCount: 2
Fore
SplineSet
80 -100 m 1xa0
 106 -69 120 -40 120 0 c 1x90
 80 0 l 1
 80 90 l 1
 160 90 l 1
 160 0 l 6xc0
 160 -40 146 -69 120 -100 c 1
 80 -100 l 1xa0
EndSplineSet
Validated: 1
EndChar

StartChar: Hbar
Encoding: 294 294 357
Width: 720
VWidth: 0
Flags: W
HStem: 0 21G<80 160 560 640> 325 70<160 560> 485 70<30 80 160 560 640 690> 700 20G<80 160 560 640>
VStem: 80 80<0 325 395 485 555 720> 560 80<0 325 395 485 555 720>
LayerCount: 2
Fore
SplineSet
160 485 m 1
 160 395 l 1
 560 395 l 1
 560 485 l 1
 160 485 l 1
80 485 m 1
 30 485 l 5
 30 555 l 5
 80 555 l 1
 80 720 l 1
 160 720 l 1
 160 555 l 1
 560 555 l 1
 560 720 l 1
 640 720 l 1
 640 555 l 1
 690 555 l 5
 690 485 l 5
 640 485 l 1
 640 0 l 1
 560 0 l 1
 560 325 l 1
 160 325 l 1
 160 0 l 1
 80 0 l 1
 80 485 l 1
EndSplineSet
Validated: 1
EndChar

StartChar: hbar
Encoding: 295 295 358
Width: 570
VWidth: 0
Flags: W
HStem: 0 21G<80 160 420 500> 470 70<229.514 362.691> 580 70<20 80 160 310> 700 20G<80 160>
VStem: 80 80<0 414.473 456 580 650 720> 420 80<0 413.745>
LayerCount: 2
Fore
SplineSet
80 580 m 1
 20 580 l 1
 20 650 l 1
 80 650 l 1
 80 720 l 1
 160 720 l 1
 160 650 l 1
 310 650 l 1
 310 580 l 1
 160 580 l 1
 160 456 l 1
 190 508 250 540 330 540 c 0
 430 540 500 460 500 360 c 2
 500 0 l 1
 420 0 l 1
 420 340 l 2
 420 410 370 470 290 470 c 0
 210 470 160 410 160 340 c 2
 160 0 l 1
 80 0 l 1
 80 580 l 1
EndSplineSet
Validated: 1
EndChar

StartChar: ordfeminine
Encoding: 170 170 359
Width: 383
VWidth: 0
Flags: W
HStem: 309 53<37 345> 412 52<103.452 243.909> 589 53<107.495 284.039> 734 53<120.284 260.055>
VStem: 27 60<481.902 568.253> 42 60<673 713.815> 285 60<500.776 586.095 634 708.351> 292 53<427 477>
LayerCount: 2
Fore
SplineSet
87 527 m 0xfa
 87 489 117 464 165 464 c 0
 247 464 285 508 285 558 c 2
 285 583 l 1
 265 586 247 589 213 589 c 0
 117 589 87 565 87 527 c 0xfa
27 520 m 0
 27 601 100 642 198 642 c 0
 240 642 264 638 285 634 c 1
 285 653 l 2
 285 709 247 734 193 734 c 0
 139 734 102 710 102 673 c 1
 42 673 l 1
 42 740 108 787 193 787 c 0
 278 787 345 741 345 654 c 2xf6
 345 427 l 1
 292 427 l 1xf1
 285 477 l 1
 261 433 219 412 149 412 c 0
 93 412 27 446 27 520 c 0
345 362 m 5xf1
 345 309 l 5
 37 309 l 5
 37 362 l 5
 345 362 l 5xf1
EndSplineSet
Validated: 1
EndChar

StartChar: multiply
Encoding: 215 215 360
Width: 500
VWidth: 0
Flags: W
HStem: 206 108<196 304>
VStem: 20 90<40 130 390 480> 205 90<215 305> 390 90<40 130 390 480>
DStem2: 110 480 20 480 0.6436 -0.765362<0 217.154 299.813 516.967> 20 40 110 40 0.6436 0.765362<57.924 275.078 357.737 574.891>
CounterMasks: 1 70
LayerCount: 2
Fore
SplineSet
390 480 m 1
 480 480 l 1
 295 260 l 1
 480 40 l 1
 390 40 l 1
 250 206 l 1
 110 40 l 1
 20 40 l 1
 205 260 l 1
 20 480 l 1
 110 480 l 1
 250 314 l 1
 390 480 l 1
EndSplineSet
Validated: 1
EndChar

StartChar: uni2074
Encoding: 8308 8308 361
Width: 415
VWidth: 0
HStem: 426 54<95 262 322 389>
VStem: 262 60<320 426 480 704>
DStem2: 27 472 95 480 0.596864 0.802342<47.0055 326.407>
LayerCount: 2
Fore
SplineSet
95 480 m 1
 262 480 l 1
 262 704 l 1
 95 480 l 1
27 426 m 1
 27 472 l 1
 271 800 l 1
 322 800 l 1
 322 480 l 1
 389 480 l 1
 389 426 l 1
 322 426 l 1
 322 320 l 1
 262 320 l 1
 262 426 l 1
 27 426 l 1
EndSplineSet
Validated: 1
EndChar

StartChar: uni2075
Encoding: 8309 8309 362
Width: 412
VWidth: 0
HStem: 307 53<122.519 273.31> 525 21G<37 105.5> 588 53<137.754 271.123> 747 53<141 330>
VStem: 33 60<363 423> 315 60<400.755 543.006>
DStem2: 37 525 115 596 0.168466 0.985707<83.1256 236.348>
LayerCount: 2
Fore
SplineSet
33 423 m 1
 93 423 l 1
 100 386 143 360 192 360 c 0
 270 360 315 398 315 474 c 0
 315 550 262 588 192 588 c 0
 150 588 114 567 97 525 c 1
 37 525 l 1
 84 800 l 1
 330 800 l 1
 330 747 l 1
 141 747 l 1
 115 596 l 1
 136 627 172 641 208 641 c 0
 279 641 375 594 375 474 c 0
 375 354 286 307 192 307 c 0
 120 307 48 342 33 423 c 1
EndSplineSet
Validated: 1
EndChar

StartChar: uni2076
Encoding: 8310 8310 363
Width: 404
VWidth: 0
HStem: 304 53<133.996 276.934> 585 53<133.629 277.079> 757 53<139.707 273.745>
VStem: 27 62<409.633 698.717> 306 60<688 748> 321 60<399.767 542.233>
LayerCount: 2
Fore
SplineSet
89 471 m 0xf4
 89 401 137 357 205 357 c 0
 273 357 321 401 321 471 c 0
 321 541 273 585 205 585 c 0
 137 585 89 541 89 471 c 0xf4
27 557 m 0
 27 757 107 810 212 810 c 0
 275 810 350 775 366 688 c 1
 306 688 l 1xf8
 299 725 258 757 211 757 c 0
 143 757 83 717 83 566 c 1
 107 610 159 638 221 638 c 0
 297 638 381 578 381 471 c 0
 381 364 303 304 205 304 c 0
 93 304 27 371 27 557 c 0
EndSplineSet
Validated: 1
EndChar

StartChar: uni2077
Encoding: 8311 8311 364
Width: 410
VWidth: -148
HStem: 746 54<40 298>
VStem: 40 331<773 800>
DStem2: 102 313 163 313 0.412011 0.911179<25.1327 475.295>
LayerCount: 2
Fore
SplineSet
40 746 m 1
 40 800 l 1
 371 800 l 1
 371 773 l 1
 163 313 l 1
 102 313 l 1
 298 746 l 1
 40 746 l 1
EndSplineSet
Validated: 1
EndChar

StartChar: uni2078
Encoding: 8312 8312 365
Width: 414
VWidth: 0
HStem: 304 53<125.393 288.886> 545 61<136.459 282.639> 757 53<136.439 280.502>
VStem: 27 60<392.72 510.33> 50 60<631.034 731.404> 309 60<631.711 730.715> 328 60<392.72 509.215>
LayerCount: 2
Fore
SplineSet
110 681 m 0xec
 110 643 138 606 208 606 c 0
 278 606 309 643 309 681 c 0
 309 719 278 757 208 757 c 0
 138 757 110 719 110 681 c 0xec
87 451 m 0xf2
 87 401 122 357 207 357 c 0
 292 357 328 401 328 451 c 0
 328 501 292 545 207 545 c 0
 122 545 87 501 87 451 c 0xf2
27 450 m 0
 27 516 67 553 124 577 c 1
 78 599 50 633 50 683 c 0
 50 743 107 810 208 810 c 0
 309 810 369 743 369 683 c 0xec
 369 633 341 599 295 577 c 1
 352 553 388 516 388 450 c 0
 388 370 323 304 207 304 c 0
 91 304 27 370 27 450 c 0
EndSplineSet
Validated: 1
EndChar

StartChar: uni2079
Encoding: 8313 8313 366
Width: 404
VWidth: 0
HStem: 304 53<132.157 267.529> 475 53<131.917 273.645> 757 53<130.333 273.073>
VStem: 27 60<571.508 714.233> 42 60<365 425> 325 56<426.979 547>
LayerCount: 2
Fore
SplineSet
87 643 m 0xf4
 87 573 134 528 202 528 c 0
 270 528 318 573 318 643 c 0
 318 713 270 757 202 757 c 0
 134 757 87 713 87 643 c 0xf4
27 643 m 0
 27 750 104 810 202 810 c 4
 314 810 381 743 381 557 c 0
 381 357 300 304 195 304 c 0
 132 304 58 339 42 425 c 1
 102 425 l 1xec
 109 388 149 357 196 357 c 0
 264 357 325 396 325 547 c 1
 301 503 248 475 186 475 c 0
 110 475 27 536 27 643 c 0
EndSplineSet
Validated: 1
EndChar

StartChar: uni2070
Encoding: 8304 8304 367
Width: 400
VWidth: 0
HStem: 304 53<139.138 261.039> 757 53<139.138 261.039>
VStem: 27 60<418.471 695.529> 314 60<423.087 690.913>
LayerCount: 2
Fore
SplineSet
87 557 m 0
 87 428 120 357 200 357 c 0
 280 357 314 428 314 557 c 0
 314 686 280 757 200 757 c 0
 120 757 87 686 87 557 c 0
27 557 m 0
 27 750 103 810 200 810 c 0
 297 810 374 750 374 557 c 0
 374 364 297 304 200 304 c 0
 103 304 27 364 27 557 c 0
EndSplineSet
Validated: 1
EndChar

StartChar: eth
Encoding: 240 240 368
Width: 580
VWidth: 0
Flags: W
HStem: -20 70<207.666 372.334> 470 70<205.237 370.167> 700 20G<170 267>
VStem: 40 80<145.838 374.162> 460 80<145.838 373.256>
DStem2: 180 630 200 580 0.939793 0.341743<1.70872 82.8727 175.058 234.094>
LayerCount: 2
Fore
SplineSet
540 260 m 0
 540 80 430 -20 290 -20 c 0
 150 -20 40 80 40 260 c 0
 40 440 150 540 270 540 c 0
 310 540 369 526 400 500 c 1
 388 533 350 577 305 618 c 1
 200 580 l 1
 180 630 l 1
 258 658 l 1
 227 683 196 705 170 720 c 1
 260 720 l 1
 274 712 294 699 317 680 c 1
 400 710 l 1
 420 660 l 1
 363 639 l 1
 446 558 540 427 540 260 c 0
120 260 m 0
 120 120 190 50 290 50 c 0
 390 50 460 120 460 260 c 0
 460 400 390 470 290 470 c 0
 190 470 120 400 120 260 c 0
EndSplineSet
Validated: 1
EndChar

StartChar: Eth
Encoding: 208 208 369
Width: 720
VWidth: 0
Flags: W
HStem: 0 72<164 455.316> 324 72<20 80 164 310> 648 72<164 455.316>
VStem: 80 84<72 324 396 648> 596 84<227.992 492.008>
CounterMasks: 1 e0
LayerCount: 2
Fore
SplineSet
80 324 m 1
 20 324 l 1
 20 396 l 1
 80 396 l 1
 80 720 l 1
 360 720 l 2
 560 720 680 560 680 360 c 0
 680 160 560 0 360 0 c 2
 80 0 l 1
 80 324 l 1
164 72 m 1
 356 72 l 2
 516 72 596 200 596 360 c 0
 596 520 516 648 356 648 c 2
 164 648 l 1
 164 396 l 1
 310 396 l 1
 310 324 l 1
 164 324 l 1
 164 72 l 1
EndSplineSet
Validated: 1
EndChar

StartChar: Dcroat
Encoding: 272 272 370
Width: 720
VWidth: 0
Flags: W
HStem: 0 72<164 455.316> 324 72<20 80 164 310> 648 72<164 455.316>
VStem: 80 84<72 324 396 648> 596 84<227.992 492.008>
CounterMasks: 1 e0
LayerCount: 2
Fore
SplineSet
80 324 m 1
 20 324 l 5
 20 396 l 1
 80 396 l 1
 80 720 l 1
 360 720 l 2
 560 720 680 560 680 360 c 0
 680 160 560 0 360 0 c 2
 80 0 l 1
 80 324 l 1
164 72 m 1
 356 72 l 2
 516 72 596 200 596 360 c 0
 596 520 516 648 356 648 c 2
 164 648 l 1
 164 396 l 1
 310 396 l 1
 310 324 l 1
 164 324 l 1
 164 72 l 1
EndSplineSet
Validated: 1
EndChar

StartChar: dcroat
Encoding: 273 273 371
Width: 620
VWidth: 0
Flags: W
HStem: -20 70<210.105 370.228> 0 21G<460 540> 470 70<210.105 368.522> 580 70<310 460 540 600> 700 20G<460 540>
VStem: 40 80<151.413 368.587> 460 80<0 80 149.258 370.742 420 580 650 720>
LayerCount: 2
Fore
SplineSet
40 260 m 0xbe
 40 440 150 540 270 540 c 0
 370 540 436 486 460 420 c 1
 460 580 l 1
 310 580 l 1
 310 650 l 1
 460 650 l 1
 460 720 l 1
 540 720 l 1
 540 650 l 1
 600 650 l 1
 600 580 l 1
 540 580 l 1
 540 0 l 1
 460 0 l 1x7e
 460 80 l 1
 436 14 370 -20 270 -20 c 0
 150 -20 40 80 40 260 c 0xbe
120 260 m 0
 120 120 200 50 290 50 c 0xbe
 380 50 460 120 460 260 c 0
 460 400 380 470 290 470 c 0
 200 470 120 400 120 260 c 0
EndSplineSet
Validated: 1
EndChar

StartChar: Lslash
Encoding: 321 321 372
Width: 620
VWidth: 0
Flags: W
HStem: 0 72<164 600> 445 70<240 310> 700 20G<80 164>
VStem: 80 84<72 255 394 720>
DStem2: 20 275 80 255 0.770394 0.637568<0 33.4723 186.807 331.801>
LayerCount: 2
Fore
SplineSet
310 515 m 5
 310 445 l 5
 164 324 l 1
 164 72 l 1
 600 72 l 1
 600 0 l 1
 80 0 l 1
 80 255 l 1
 20 205 l 5
 20 275 l 5
 80 325 l 1
 80 720 l 1
 164 720 l 1
 164 394 l 1
 310 515 l 5
EndSplineSet
Validated: 1
EndChar

StartChar: lslash
Encoding: 322 322 373
Width: 330
VWidth: 0
Flags: W
HStem: 0 21G<125 205> 205 70<20 90> 445 70<240 310> 700 20G<125 205>
VStem: 125 80<0 292 428 720>
DStem2: 20 275 20 205 0.770394 0.637568<0 91.7301 240.071 331.801>
LayerCount: 2
Fore
SplineSet
310 515 m 5
 310 445 l 5
 205 358 l 1
 205 0 l 1
 125 0 l 1
 125 292 l 1
 20 205 l 5
 20 275 l 5
 125 362 l 1
 125 720 l 1
 205 720 l 1
 205 428 l 1
 310 515 l 5
EndSplineSet
Validated: 1
EndChar

StartChar: registered
Encoding: 174 174 374
Width: 860
VWidth: 0
Flags: W
HStem: -20 60<312.972 547.028> 315 55<337 452> 518 60<337 516.719> 680 60<312.972 547.028>
VStem: 50 70<235.699 484.301> 267 70<141 315 370 518> 537 70<388.803 499.694> 740 70<235.699 484.301>
DStem2: 519 323 452 315 0.458892 -0.888492<0 171.801>
LayerCount: 2
Fore
SplineSet
120 360 m 0
 120 170 250 40 430 40 c 0
 610 40 740 170 740 360 c 0
 740 550 610 680 430 680 c 0
 250 680 120 550 120 360 c 0
50 360 m 0
 50 580 210 740 430 740 c 0
 650 740 810 580 810 360 c 0
 810 140 650 -20 430 -20 c 0
 210 -20 50 140 50 360 c 0
337 370 m 1
 470 370 l 2
 512 370 537 404 537 444 c 0
 537 484 512 518 470 518 c 2
 337 518 l 1
 337 370 l 1
267 141 m 1
 267 578 l 1
 470 578 l 2
 530 578 607 534 607 444 c 0
 607 377 561 338 519 323 c 1
 613 141 l 1
 541 141 l 1
 452 315 l 1
 337 315 l 1
 337 141 l 1
 267 141 l 1
EndSplineSet
Validated: 1
EndChar

StartChar: notequal
Encoding: 8800 8800 375
Width: 520
VWidth: 0
Flags: W
HStem: -10 21G<40 129.736> 255 70<50 169 283 470> 405 70<50 242 356 470> 710 20G<390.275 480>
DStem2: 40 -10 120 -10 0.437466 0.899235<34.9973 294.73 407.548 461.551 574.368 822.922>
LayerCount: 2
Fore
SplineSet
50 255 m 1
 50 325 l 1
 203 325 l 1
 242 405 l 1
 50 405 l 1
 50 475 l 1
 276 475 l 1
 400 730 l 1
 480 730 l 1
 356 475 l 1
 470 475 l 1
 470 405 l 1
 322 405 l 1
 283 325 l 1
 470 325 l 1
 470 255 l 1
 249 255 l 1
 120 -10 l 1
 40 -10 l 1
 169 255 l 1
 50 255 l 1
EndSplineSet
Validated: 1
EndChar

StartChar: bullet
Encoding: 8226 8226 376
Width: 420
VWidth: 0
Flags: W
HStem: 230 260<139.842 280.158>
VStem: 80 260<289.842 430.158>
LayerCount: 2
Fore
SplineSet
80 360 m 24
 80 432 138 490 210 490 c 24
 282 490 340 432 340 360 c 24
 340 288 282 230 210 230 c 24
 138 230 80 288 80 360 c 24
EndSplineSet
Validated: 1
EndChar

StartChar: ordmasculine
Encoding: 186 186 377
Width: 400
VWidth: 0
Flags: W
HStem: 309 53<40 360> 417 60<147.181 252.819> 727 60<147.181 252.819>
VStem: 40 70<516.972 687.028> 290 70<516.972 687.028>
LayerCount: 2
Fore
SplineSet
360 362 m 5
 360 309 l 5
 40 309 l 5
 40 362 l 5
 360 362 l 5
110 602 m 4
 110 522 150 477 200 477 c 4
 250 477 290 522 290 602 c 4
 290 682 250 727 200 727 c 4
 150 727 110 682 110 602 c 4
40 602 m 4
 40 722 120 787 200 787 c 4
 280 787 360 722 360 602 c 4
 360 482 280 417 200 417 c 4
 120 417 40 482 40 602 c 4
EndSplineSet
Validated: 1
EndChar

StartChar: florin
Encoding: 402 402 379
Width: 320
VWidth: 0
Flags: W
HStem: -220 70<20.9076 108.189> 450 70<50 120 200 290> 670 70<212.444 299.271>
VStem: 120 80<-138.89 450 520 659.778>
LayerCount: 2
Fore
SplineSet
120 450 m 1
 50 450 l 1
 50 520 l 1
 120 520 l 1
 120 570 l 2
 120 710 170 740 230 740 c 0
 260 740 289 734 300 730 c 1
 300 665 l 1
 280 668 270 670 250 670 c 0
 210 670 200 640 200 570 c 2
 200 520 l 1
 290 520 l 1
 290 450 l 1
 200 450 l 1
 200 -50 l 2
 200 -170 170 -220 90 -220 c 4
 50 -220 39 -217 20 -210 c 1
 20 -145 l 1
 40 -148 50 -150 70 -150 c 0
 110 -150 120 -120 120 -50 c 2
 120 450 l 1
EndSplineSet
Validated: 1
EndChar

StartChar: trademark
Encoding: 8482 8482 380
Width: 1040
VWidth: -112
Flags: W
HStem: 747 53<13 173 233 393>
VStem: 173 60<320 747> 463 63<320 714> 922 63<320 707>
DStem2: 555 800 526 714 0.377436 -0.926036<68.6934 455.706> 727 378 765 320 0.375552 0.926801<0 378.15>
LayerCount: 2
Fore
SplineSet
526 320 m 5
 463 320 l 5
 463 800 l 5
 555 800 l 5
 727 378 l 5
 898 800 l 5
 985 800 l 5
 985 320 l 5
 922 320 l 5
 922 707 l 5
 765 320 l 5
 687 320 l 5
 526 714 l 5
 526 320 l 5
13 747 m 1
 13 800 l 1
 393 800 l 1
 393 747 l 1
 233 747 l 1
 233 320 l 1
 173 320 l 1
 173 747 l 1
 13 747 l 1
EndSplineSet
Validated: 1
EndChar

StartChar: Omega
Encoding: 8486 8486 381
Width: 760
VWidth: 0
Flags: W
HStem: 0 70<20 180 273.651 340 420 486.349 580 740> 670 70<277.081 482.919>
VStem: 40 80<229.744 498.678> 640 80<229.744 498.678>
LayerCount: 2
Fore
SplineSet
380 740 m 0
 570 740 720 610 720 360 c 0
 720 231 658.999023438 115.610351562 580 70 c 1
 740 70 l 1
 740 0 l 1
 420 0 l 1
 420 70 l 1
 544 92 640 183 640 360 c 0
 640 560 530 670 380 670 c 0
 230 670 120 560 120 360 c 0
 120 183 216 92 340 70 c 1
 340 0 l 1
 20 0 l 1
 20 70 l 1
 180 70 l 1
 101.000976562 115.610351562 40 231 40 360 c 0
 40 610 190 740 380 740 c 0
EndSplineSet
Validated: 1
EndChar

StartChar: minus
Encoding: 8722 8722 383
Width: 580
VWidth: 0
Flags: W
HStem: 280 70<20 540>
LayerCount: 2
Fore
SplineSet
20 280 m 1
 20 350 l 1
 540 350 l 5
 540 280 l 5
 20 280 l 1
EndSplineSet
Validated: 1
EndChar

StartChar: integral
Encoding: 8747 8747 385
Width: 320
VWidth: 0
Flags: W
HStem: -240 70<20.9076 108.189> 690 70<212.444 299.271>
VStem: 120 80<-158.89 679.778>
LayerCount: 2
Fore
SplineSet
120 590 m 2
 120 730 170 760 230 760 c 0
 260 760 289 754 300 750 c 1
 300 685 l 1
 280 688 270 690 250 690 c 0
 210 690 200 660 200 590 c 2
 200 -70 l 2
 200 -190 170 -240 90 -240 c 4
 50 -240 39 -237 20 -230 c 1
 20 -165 l 1
 40 -168 50 -170 70 -170 c 0
 110 -170 120 -140 120 -70 c 2
 120 590 l 2
EndSplineSet
Validated: 1
EndChar

StartChar: currency
Encoding: 164 164 386
Width: 440
VWidth: 0
Flags: W
HStem: 135 70<159.629 280.371> 425 70<159.629 280.371>
VStem: 40 80<245.217 384.783> 320 80<245.217 384.783>
DStem2: 70 515 20 465 0.707107 -0.707107<0 76.6781 418.297 494.975> 20 165 70 115 0.707107 0.707107<0 76.6781 418.297 494.975>
LayerCount: 2
Fore
SplineSet
120 315 m 0
 120 255 160 205 220 205 c 0
 280 205 320 255 320 315 c 0
 320 375 280 425 220 425 c 0
 160 425 120 375 120 315 c 0
120 465 m 1
 149 484 183 495 220 495 c 0
 257 495 291 484 320 465 c 1
 370 515 l 1
 420 465 l 1
 370 415 l 1
 389 386 400 352 400 315 c 0
 400 278 389 244 370 215 c 1
 420 165 l 1
 370 115 l 1
 320 165 l 1
 291 146 257 135 220 135 c 0
 183 135 149 146 120 165 c 1
 70 115 l 1
 20 165 l 1
 70 215 l 1
 51 244 40 278 40 315 c 0
 40 352 51 386 70 415 c 1
 20 465 l 1
 70 515 l 1
 120 465 l 1
EndSplineSet
Validated: 1
EndChar

StartChar: onequarter
Encoding: 188 188 387
Width: 833
VWidth: 0
Flags: W
HStem: 0 21G<680 740> 106 54<513 680 740 807>
VStem: 213 60<320 723> 680 60<0 106 160 384>
DStem2: 80 713 80 653 0.885727 0.464206<0 122.444> 200 85 250 55 0.581238 0.813733<4.64991 688.186> 445 152 513 160 0.596864 0.802342<47.0055 326.407>
LayerCount: 2
Fore
SplineSet
513 160 m 1
 680 160 l 1
 680 384 l 1
 513 160 l 1
445 106 m 1
 445 152 l 1
 689 480 l 1
 740 480 l 1
 740 160 l 1
 807 160 l 1
 807 106 l 1
 740 106 l 1
 740 0 l 1
 680 0 l 1
 680 106 l 1
 445 106 l 1
80 653 m 1
 80 713 l 1
 246 800 l 1
 273 800 l 1
 273 320 l 1
 213 320 l 1
 213 723 l 1
 80 653 l 1
200 85 m 1
 600 645 l 1
 650 615 l 1
 250 55 l 1
 200 85 l 1
EndSplineSet
Validated: 1
EndChar

StartChar: onehalf
Encoding: 189 189 388
Width: 936
VWidth: 0
Flags: W
HStem: 0 53<679 910> 440 53<663.499 796.751>
VStem: 213 60<320 723> 564 60<330 399.22> 837 60<255.939 400.76>
DStem2: 80 713 80 653 0.885727 0.464206<0 122.444> 200 85 250 55 0.581238 0.813733<4.64991 688.186> 579 49 679 53 0.783355 0.621575<80.8218 328.951>
LayerCount: 2
Fore
SplineSet
564 330 m 1
 564 425 626 493 730 493 c 0
 834 493 897 418 897 330 c 0
 897 242 855 192 763 119 c 2
 679 53 l 1
 910 53 l 1
 910 0 l 1
 579 0 l 1
 579 49 l 1
 763 195 l 2
 810 232 837 285 837 330 c 0
 837 395 797 440 730 440 c 0
 663 440 624 394 624 330 c 1
 564 330 l 1
80 653 m 1
 80 713 l 1
 246 800 l 1
 273 800 l 1
 273 320 l 1
 213 320 l 1
 213 723 l 1
 80 653 l 1
200 85 m 1
 600 645 l 1
 650 615 l 1
 250 55 l 1
 200 85 l 1
EndSplineSet
Validated: 1
EndChar

StartChar: threequarters
Encoding: 190 190 389
Width: 833
VWidth: 0
Flags: W
HStem: 0 21G<680 740> 106 54<513 680 740 807> 304 53<125.446 290.554> 536 54<166 273.385> 757 53<140.48 276.661>
VStem: 27 60<391.75 445> 50 60<671 725.295> 307 60<619.348 727.093> 329 60<391.538 501.568> 680 60<0 106 160 384>
DStem2: 200 85 250 55 0.581238 0.813733<4.64991 688.186> 445 152 513 160 0.596864 0.802342<47.0055 326.407>
LayerCount: 2
Fore
SplineSet
513 160 m 1xf840
 680 160 l 1
 680 384 l 1
 513 160 l 1xf840
445 106 m 1
 445 152 l 1
 689 480 l 1
 740 480 l 1
 740 160 l 1
 807 160 l 1
 807 106 l 1
 740 106 l 1
 740 0 l 1
 680 0 l 1
 680 106 l 1
 445 106 l 1
27 445 m 1xfcc0
 87 445 l 1
 87 395 130 357 208 357 c 0
 286 357 329 395 329 445 c 0xfcc0
 329 502 293 536 166 536 c 1
 166 590 l 1
 279 590 307 625 307 675 c 0
 307 719 271 757 208 757 c 0
 145 757 110 717 110 671 c 1
 50 671 l 1
 50 741 107 810 208 810 c 0
 309 810 367 744 367 677 c 0xfb40
 367 630 341 587 295 565 c 1
 352 541 389 510 389 444 c 0
 389 371 324 304 208 304 c 0
 92 304 27 371 27 445 c 1xfcc0
200 85 m 1
 600 645 l 1
 650 615 l 1
 250 55 l 1
 200 85 l 1
EndSplineSet
Validated: 1
EndChar

StartChar: dagger
Encoding: 8224 8224 390
Width: 440
VWidth: 0
Flags: W
HStem: 450 70<20 180 260 420> 700 20G<180 260>
VStem: 180 80<-120 450 520 720>
LayerCount: 2
Fore
SplineSet
180 720 m 1
 260 720 l 1
 260 520 l 1
 420 520 l 1
 420 450 l 1
 260 450 l 1
 260 -120 l 1
 180 -120 l 1
 180 450 l 1
 20 450 l 1
 20 520 l 1
 180 520 l 1
 180 720 l 1
EndSplineSet
Validated: 1
EndChar

StartChar: daggerdbl
Encoding: 8225 8225 391
Width: 440
VWidth: 0
Flags: W
HStem: 80 70<25 180 260 425> 450 70<20 180 260 420> 700 20G<180 260>
VStem: 180 80<-120 80 150 450 520 720>
LayerCount: 2
Fore
SplineSet
180 720 m 1
 260 720 l 1
 260 520 l 1
 420 520 l 1
 420 450 l 1
 260 450 l 1
 260 150 l 5
 425 150 l 5
 425 80 l 5
 260 80 l 5
 260 -120 l 1
 180 -120 l 1
 180 80 l 5
 25 80 l 5
 25 150 l 5
 180 150 l 5
 180 450 l 1
 20 450 l 1
 20 520 l 1
 180 520 l 1
 180 720 l 1
EndSplineSet
Validated: 1
EndChar

StartChar: partialdiff
Encoding: 8706 8706 392
Width: 580
VWidth: 0
Flags: W
HStem: -20 70<207.666 372.334> 470 70<205.237 370.167> 700 20G<170 327.614>
VStem: 40 80<145.838 374.162> 460 80<145.838 375.501>
LayerCount: 2
Fore
SplineSet
540 260 m 0
 540 80 430 -20 290 -20 c 0
 150 -20 40 80 40 260 c 0
 40 440 150 540 270 540 c 0
 310 540 369 526 400 500 c 1
 372.545863965 575.498874096 243.68898616 677.487123369 170 720 c 1
 260 720 l 1
 395.228174182 642.72675761 540 475.357290547 540 260 c 0
120 260 m 0
 120 120 190 50 290 50 c 0
 390 50 460 120 460 260 c 0
 460 400 390 470 290 470 c 0
 190 470 120 400 120 260 c 0
EndSplineSet
Validated: 1
EndChar

StartChar: product
Encoding: 8719 8719 393
Width: 720
VWidth: 0
Flags: W
HStem: -200 21G<80 164 556 640> 648 72<164 556>
VStem: 80 84<-200 648> 556 84<-200 648>
LayerCount: 2
Fore
SplineSet
80 -200 m 1
 80 720 l 1
 640 720 l 1
 640 -200 l 1
 556 -200 l 1
 556 648 l 1
 164 648 l 1
 164 -200 l 1
 80 -200 l 1
EndSplineSet
Validated: 1
EndChar

StartChar: pi
Encoding: 960 960 394
Width: 570
VWidth: 0
Flags: W
HStem: 0 21G<80 160 410 490> 450 70<20 80 160 410 490 550>
VStem: 80 80<0 450> 410 80<0 450>
LayerCount: 2
Fore
SplineSet
20 520 m 1
 550 520 l 1
 550 450 l 1
 490 450 l 1
 490 0 l 1
 410 0 l 1
 410 450 l 1
 160 450 l 1
 160 0 l 1
 80 0 l 1
 80 450 l 1
 20 450 l 1
 20 520 l 1
EndSplineSet
Validated: 1
EndChar

StartChar: radical
Encoding: 8730 8730 395
Width: 660
VWidth: 0
Flags: W
HStem: 0 21G<268.889 391.111> 450 70<20 116> 700 20G<548.96 640>
DStem2: 174 520 116 450 0.33501 -0.942215<46.5245 468.72> 330 78 384 0 0.33501 0.942215<0 680.614>
LayerCount: 2
Fore
SplineSet
174 520 m 1
 330 78 l 1
 556 720 l 1
 640 720 l 1
 384 0 l 1
 276 0 l 1
 116 450 l 9
 20 450 l 25
 20 520 l 25
 174 520 l 1
EndSplineSet
Validated: 1
EndChar

StartChar: summation
Encoding: 8721 8721 396
Width: 620
VWidth: 0
Flags: W
HStem: -200 72<174 600> 648 72<174 600>
VStem: 330 94<213 307>
DStem2: 174 648 80 648 0.541633 -0.840615<0 410.653> 80 -128 174 -128 0.541633 0.840615<50.9135 461.567>
LayerCount: 2
Fore
SplineSet
174 -128 m 5
 600 -128 l 5
 600 -200 l 5
 80 -200 l 5
 80 -128 l 5
 330 260 l 1
 80 648 l 1
 80 720 l 1
 600 720 l 1
 600 648 l 1
 174 648 l 1
 424 260 l 1
 174 -128 l 5
EndSplineSet
Validated: 1
EndChar

StartChar: approxequal
Encoding: 8776 8776 397
Width: 450
VWidth: 0
Flags: W
HStem: 175 50<272.384 349.235> 260 50<100.765 178.281> 325 50<272.384 349.235> 410 50<100.765 178.281>
VStem: 40 50<175 252.871 325 402.871> 360 50<232.129 310 382.129 460>
LayerCount: 2
Fore
SplineSet
40 325 m 1
 40 405 70 460 130 460 c 0
 160 460 188.850877343 454.414586181 238 420 c 0
 287.149122657 385.585413819 305 375 320 375 c 0
 340 375 360 390 360 460 c 1
 410 460 l 1
 410 380 380 325 320 325 c 0
 290 325 262.149122657 330.585413819 213 365 c 0
 163.850877343 399.414586181 145 410 130 410 c 0
 110 410 90 395 90 325 c 1
 40 325 l 1
40 175 m 1
 40 255 70 310 130 310 c 0
 160 310 188.850877343 304.414586181 238 270 c 0
 287.149122657 235.585413819 305 225 320 225 c 0
 340 225 360 240 360 310 c 1
 410 310 l 1
 410 230 380 175 320 175 c 0
 290 175 262.149122657 180.585413819 213 215 c 0
 163.850877343 249.414586181 145 260 130 260 c 0
 110 260 90 245 90 175 c 1
 40 175 l 1
EndSplineSet
Validated: 1
EndChar

StartChar: lozenge
Encoding: 9674 9674 398
Width: 400
VWidth: 0
Flags: W
HStem: 0 78<146 254> 642 78<146 254>
VStem: 18 82<319 401> 300 82<319 401>
DStem2: 100 360 18 360 0.33501 -0.942215<0 299.206> 18 360 100 360 0.33501 0.942215<27.4708 326.676> 254 720 200 642 0.33501 -0.942215<55.4022 354.608> 200 78 254 0 0.33501 0.942215<0 299.206>
LayerCount: 2
Fore
SplineSet
18 360 m 1
 146 720 l 1
 254 720 l 1
 382 360 l 1
 254 0 l 1
 146 0 l 1
 18 360 l 1
300 360 m 1
 200 642 l 1
 100 360 l 1
 200 78 l 1
 300 360 l 1
EndSplineSet
Validated: 1
EndChar

StartChar: infinity
Encoding: 8734 8734 399
Width: 530
VWidth: 0
Flags: W
HStem: 260 60<126.957 213.94 316.06 403.043> 460 60<126.957 213.94 316.06 403.043>
VStem: 40 70<336.189 443.811> 230 70<335.965 444.035> 420 70<336.189 443.811>
CounterMasks: 1 38
LayerCount: 2
Fore
SplineSet
110 390 m 4
 110 345 140 320 170 320 c 4
 200 320 230 345 230 390 c 4
 230 435 200 460 170 460 c 4
 140 460 110 435 110 390 c 4
40 390 m 4
 40 462 98 520 170 520 c 4
 208 520 241 504 265 479 c 5
 289 504 322 520 360 520 c 4
 432 520 490 462 490 390 c 4
 490 318 432 260 360 260 c 4
 322 260 289 276 265 301 c 5
 241 276 208 260 170 260 c 4
 98 260 40 318 40 390 c 4
300 390 m 4
 300 345 330 320 360 320 c 4
 390 320 420 345 420 390 c 4
 420 435 390 460 360 460 c 4
 330 460 300 435 300 390 c 4
EndSplineSet
Validated: 1
EndChar

StartChar: lscript
Encoding: 8467 8467 400
Width: 260
VWidth: 0
Flags: W
HStem: -20 70<171.811 259.092> 700 20G<80 160>
VStem: 80 80<61.11 720>
LayerCount: 2
Fore
SplineSet
80 720 m 1
 160 720 l 1
 160 150 l 2
 160 80 170 50 210 50 c 0
 230 50 240 52 260 55 c 1
 260 -10 l 1
 241 -17 230 -20 190 -20 c 0
 110 -20 80 30 80 150 c 2
 80 720 l 1
EndSplineSet
Validated: 1
EndChar

StartChar: uni20BA
Encoding: 8378 8378 401
Width: 600
VWidth: 0
Flags: W
HStem: 0 72<164 278.941> 250 70<20 80 164 320> 400 70<20 80 164 320> 700 20G<80 164>
VStem: 80 84<72 250 320 400 470 720> 500 80<282 362>
LayerCount: 2
Fore
SplineSet
20 250 m 1
 20 320 l 1
 80 320 l 1
 80 400 l 1
 20 400 l 1
 20 470 l 1
 80 470 l 1
 80 720 l 1
 164 720 l 1
 164 470 l 1
 320 470 l 1
 320 400 l 1
 164 400 l 1
 164 320 l 1
 320 320 l 1
 320 250 l 1
 164 250 l 1
 164 72 l 1
 344 72 474 214 500 362 c 1
 580 360 l 1
 545 163 404 0 164 0 c 2
 80 0 l 1
 80 250 l 1
 20 250 l 1
EndSplineSet
Validated: 1
EndChar

StartChar: uni20BD
Encoding: 8381 8381 402
Width: 650
VWidth: 0
Flags: W
HStem: 0 21G<100 184> 160 72<20 100 184 400> 310 72<20 100 184 474.578> 648 72<184 474.578>
VStem: 100 84<0 160 232 310 382 648> 526 84<435.088 594.912>
LayerCount: 2
Fore
SplineSet
400 232 m 1
 400 160 l 1
 184 160 l 1
 184 0 l 1
 100 0 l 1
 100 160 l 1
 20 160 l 1
 20 232 l 1
 100 232 l 1
 100 310 l 1
 20 310 l 1
 20 382 l 1
 100 382 l 1
 100 720 l 1
 410 720 l 2
 510 720 610 665 610 515 c 0
 610 365 510 310 410 310 c 2
 184 310 l 1
 184 232 l 1
 400 232 l 1
184 382 m 1
 406 382 l 2
 476 382 526 435 526 515 c 0
 526 595 476 648 406 648 c 2
 184 648 l 1
 184 382 l 1
EndSplineSet
Validated: 1
EndChar

